<mxfile host="app.diagrams.net" modified="2024-04-25T14:07:15.914Z" agent="Mozilla/5.0 (X11; Ubuntu; Linux x86_64; rv:125.0) Gecko/20100101 Firefox/125.0" etag="sA_yaGtplhiJp3EM7gGO" version="24.3.0" type="device">
  <diagram name="Page-1" id="6jlM3Q8hDFWsS8-wYO5z">
    <mxGraphModel dx="8168" dy="2252" grid="1" gridSize="10" guides="1" tooltips="1" connect="1" arrows="1" fold="1" page="0" pageScale="1" pageWidth="850" pageHeight="1100" math="0" shadow="0">
      <root>
        <mxCell id="0" />
        <mxCell id="1" parent="0" />
        <mxCell id="wPL9N87I6AKQR9O6h3sn-280" value="&lt;div align=&quot;left&quot;&gt;&lt;br&gt;&lt;/div&gt;" style="rounded=1;whiteSpace=wrap;html=1;" parent="1" vertex="1">
          <mxGeometry x="-2155" y="820" width="570" height="850" as="geometry" />
        </mxCell>
        <mxCell id="wPL9N87I6AKQR9O6h3sn-255" value="" style="shape=hexagon;perimeter=hexagonPerimeter2;whiteSpace=wrap;html=1;fixedSize=1;size=180;fillColor=#FFEBEB;direction=east;" parent="1" vertex="1">
          <mxGeometry x="-2170" y="2210" width="1500" height="460" as="geometry" />
        </mxCell>
        <mxCell id="wPL9N87I6AKQR9O6h3sn-227" value="" style="shape=hexagon;perimeter=hexagonPerimeter2;whiteSpace=wrap;html=1;fixedSize=1;size=180;fillColor=#FFEBEB;direction=east;" parent="1" vertex="1">
          <mxGeometry x="-630" y="2200" width="1500" height="780" as="geometry" />
        </mxCell>
        <mxCell id="fPi5jzbXd19ijoVux2jO-18" value="" style="endArrow=classic;startArrow=classic;html=1;curved=1;strokeWidth=10;strokeColor=#6B6B6B;exitX=0;exitY=0.5;exitDx=0;exitDy=0;" parent="1" source="wPL9N87I6AKQR9O6h3sn-278" edge="1">
          <mxGeometry width="50" height="50" relative="1" as="geometry">
            <mxPoint x="-485" y="1110" as="sourcePoint" />
            <mxPoint x="-520" y="3047" as="targetPoint" />
            <Array as="points">
              <mxPoint x="-2450" y="1310" />
              <mxPoint x="-1440" y="2270" />
            </Array>
          </mxGeometry>
        </mxCell>
        <mxCell id="wPL9N87I6AKQR9O6h3sn-118" value="" style="shape=flexArrow;endArrow=classic;html=1;rounded=0;endWidth=53.33333333333333;endSize=22.62222222222222;width=80;fillColor=#6B6B6B;entryX=0.5;entryY=0;entryDx=0;entryDy=0;" parent="1" target="HDF9foMfLyrXzTbLnonI-9" edge="1">
          <mxGeometry width="50" height="50" relative="1" as="geometry">
            <mxPoint x="-450" y="1450" as="sourcePoint" />
            <mxPoint x="90" y="1930" as="targetPoint" />
          </mxGeometry>
        </mxCell>
        <mxCell id="wPL9N87I6AKQR9O6h3sn-116" value="" style="shape=flexArrow;endArrow=classic;html=1;rounded=0;endWidth=53.33333333333333;endSize=22.62222222222222;width=80;fillColor=#6B6B6B;entryX=0.5;entryY=0;entryDx=0;entryDy=0;" parent="1" target="HDF9foMfLyrXzTbLnonI-13" edge="1">
          <mxGeometry width="50" height="50" relative="1" as="geometry">
            <mxPoint x="-880" y="1410" as="sourcePoint" />
            <mxPoint x="-1410" y="1960" as="targetPoint" />
          </mxGeometry>
        </mxCell>
        <mxCell id="wPL9N87I6AKQR9O6h3sn-109" value="" style="shape=hexagon;perimeter=hexagonPerimeter2;whiteSpace=wrap;html=1;fixedSize=1;size=180;fillColor=#FFEBEB;" parent="1" vertex="1">
          <mxGeometry x="-1640" y="300" width="2220" height="310" as="geometry" />
        </mxCell>
        <mxCell id="wPL9N87I6AKQR9O6h3sn-105" value="" style="endArrow=classic;html=1;rounded=0;entryX=1;entryY=0;entryDx=0;entryDy=0;strokeWidth=10;edgeStyle=orthogonalEdgeStyle;curved=1;exitX=1;exitY=0.402;exitDx=0;exitDy=0;exitPerimeter=0;" parent="1" source="wPL9N87I6AKQR9O6h3sn-100" target="wPL9N87I6AKQR9O6h3sn-7" edge="1">
          <mxGeometry width="50" height="50" relative="1" as="geometry">
            <mxPoint x="-80" y="200" as="sourcePoint" />
            <mxPoint x="-30" y="150" as="targetPoint" />
            <Array as="points">
              <mxPoint x="55" y="320" />
              <mxPoint x="300" y="320" />
              <mxPoint x="300" y="540" />
              <mxPoint x="110" y="540" />
            </Array>
          </mxGeometry>
        </mxCell>
        <mxCell id="wPL9N87I6AKQR9O6h3sn-100" value="" style="shape=callout;whiteSpace=wrap;html=1;perimeter=calloutPerimeter;position2=0.5;size=50;position=0.52;" parent="1" vertex="1">
          <mxGeometry x="-905" y="310" width="960" height="330" as="geometry" />
        </mxCell>
        <mxCell id="wPL9N87I6AKQR9O6h3sn-7" value="&lt;font style=&quot;font-size: 50px;&quot;&gt;Peer 1&lt;br&gt;&lt;/font&gt;" style="swimlane;whiteSpace=wrap;html=1;startSize=70;separatorColor=none;glass=0;" parent="1" vertex="1">
          <mxGeometry x="-1390" y="630" width="1500" height="860" as="geometry" />
        </mxCell>
        <mxCell id="wPL9N87I6AKQR9O6h3sn-117" value="" style="rounded=0;whiteSpace=wrap;html=1;" parent="wPL9N87I6AKQR9O6h3sn-7" vertex="1">
          <mxGeometry y="70" width="1500" height="790" as="geometry" />
        </mxCell>
        <mxCell id="wPL9N87I6AKQR9O6h3sn-85" value="" style="edgeStyle=orthogonalEdgeStyle;rounded=0;orthogonalLoop=1;jettySize=auto;html=1;" parent="wPL9N87I6AKQR9O6h3sn-7" edge="1">
          <mxGeometry relative="1" as="geometry">
            <mxPoint x="640" y="260" as="sourcePoint" />
            <mxPoint x="640" y="260" as="targetPoint" />
          </mxGeometry>
        </mxCell>
        <mxCell id="wPL9N87I6AKQR9O6h3sn-12" value="" style="shape=note;whiteSpace=wrap;html=1;backgroundOutline=1;darkOpacity=0.05;size=23;" parent="wPL9N87I6AKQR9O6h3sn-7" vertex="1">
          <mxGeometry x="380" y="90" width="520" height="180" as="geometry" />
        </mxCell>
        <mxCell id="wPL9N87I6AKQR9O6h3sn-13" value="" style="shape=note;whiteSpace=wrap;html=1;backgroundOutline=1;darkOpacity=0.05;" parent="wPL9N87I6AKQR9O6h3sn-7" vertex="1">
          <mxGeometry x="380" y="270" width="520" height="250" as="geometry" />
        </mxCell>
        <mxCell id="wPL9N87I6AKQR9O6h3sn-14" value="" style="shape=internalStorage;whiteSpace=wrap;html=1;backgroundOutline=1;dx=120;dy=100;" parent="wPL9N87I6AKQR9O6h3sn-7" vertex="1">
          <mxGeometry x="20" y="90" width="330" height="590" as="geometry" />
        </mxCell>
        <mxCell id="wPL9N87I6AKQR9O6h3sn-15" value="&lt;div&gt;&lt;font style=&quot;font-size: 50px;&quot;&gt;CID&lt;/font&gt;&lt;/div&gt;" style="text;html=1;strokeColor=none;fillColor=none;align=center;verticalAlign=middle;whiteSpace=wrap;rounded=0;" parent="wPL9N87I6AKQR9O6h3sn-7" vertex="1">
          <mxGeometry x="20" y="90" width="120" height="100" as="geometry" />
        </mxCell>
        <mxCell id="wPL9N87I6AKQR9O6h3sn-16" value="&lt;font style=&quot;font-size: 50px;&quot;&gt;FILE&lt;/font&gt;" style="text;html=1;strokeColor=none;fillColor=none;align=center;verticalAlign=middle;whiteSpace=wrap;rounded=0;" parent="wPL9N87I6AKQR9O6h3sn-7" vertex="1">
          <mxGeometry x="140" y="90" width="210" height="100" as="geometry" />
        </mxCell>
        <mxCell id="wPL9N87I6AKQR9O6h3sn-20" value="" style="endArrow=none;html=1;rounded=0;exitX=0;exitY=0.163;exitDx=0;exitDy=0;entryX=1;entryY=0.163;entryDx=0;entryDy=0;entryPerimeter=0;exitPerimeter=0;" parent="wPL9N87I6AKQR9O6h3sn-7" edge="1">
          <mxGeometry width="50" height="50" relative="1" as="geometry">
            <mxPoint x="20" y="290.00000000000006" as="sourcePoint" />
            <mxPoint x="350" y="290.00000000000006" as="targetPoint" />
          </mxGeometry>
        </mxCell>
        <mxCell id="wPL9N87I6AKQR9O6h3sn-21" value="&lt;font style=&quot;font-size: 50px;&quot;&gt;982&lt;/font&gt;" style="text;html=1;strokeColor=none;fillColor=none;align=center;verticalAlign=middle;whiteSpace=wrap;rounded=0;" parent="wPL9N87I6AKQR9O6h3sn-7" vertex="1">
          <mxGeometry x="20" y="190" width="120" height="100" as="geometry" />
        </mxCell>
        <mxCell id="wPL9N87I6AKQR9O6h3sn-22" value="&lt;font style=&quot;font-size: 50px;&quot;&gt;F1.json&lt;/font&gt;" style="text;html=1;strokeColor=none;fillColor=none;align=center;verticalAlign=middle;whiteSpace=wrap;rounded=0;" parent="wPL9N87I6AKQR9O6h3sn-7" vertex="1">
          <mxGeometry x="140" y="190" width="210" height="100" as="geometry" />
        </mxCell>
        <mxCell id="wPL9N87I6AKQR9O6h3sn-26" value="&lt;font style=&quot;font-size: 50px;&quot;&gt;F2.json&lt;/font&gt;" style="text;html=1;strokeColor=none;fillColor=none;align=center;verticalAlign=middle;whiteSpace=wrap;rounded=0;" parent="wPL9N87I6AKQR9O6h3sn-7" vertex="1">
          <mxGeometry x="140" y="290" width="210" height="100" as="geometry" />
        </mxCell>
        <mxCell id="wPL9N87I6AKQR9O6h3sn-27" value="&lt;font style=&quot;font-size: 50px;&quot;&gt;794&lt;/font&gt;" style="text;html=1;strokeColor=none;fillColor=none;align=center;verticalAlign=middle;whiteSpace=wrap;rounded=0;" parent="wPL9N87I6AKQR9O6h3sn-7" vertex="1">
          <mxGeometry x="20" y="290" width="120" height="100" as="geometry" />
        </mxCell>
        <mxCell id="wPL9N87I6AKQR9O6h3sn-28" value="" style="endArrow=none;html=1;rounded=0;exitX=0;exitY=0.163;exitDx=0;exitDy=0;entryX=1;entryY=0.163;entryDx=0;entryDy=0;entryPerimeter=0;exitPerimeter=0;" parent="wPL9N87I6AKQR9O6h3sn-7" edge="1">
          <mxGeometry width="50" height="50" relative="1" as="geometry">
            <mxPoint x="20" y="390" as="sourcePoint" />
            <mxPoint x="350" y="390" as="targetPoint" />
          </mxGeometry>
        </mxCell>
        <mxCell id="wPL9N87I6AKQR9O6h3sn-29" value="&lt;font style=&quot;font-size: 50px;&quot;&gt;F3.json&lt;/font&gt;" style="text;html=1;strokeColor=none;fillColor=none;align=center;verticalAlign=middle;whiteSpace=wrap;rounded=0;" parent="wPL9N87I6AKQR9O6h3sn-7" vertex="1">
          <mxGeometry x="140" y="390" width="210" height="100" as="geometry" />
        </mxCell>
        <mxCell id="wPL9N87I6AKQR9O6h3sn-30" value="&lt;div&gt;&lt;font style=&quot;font-size: 50px;&quot;&gt;468&lt;/font&gt;&lt;/div&gt;" style="text;html=1;strokeColor=none;fillColor=none;align=center;verticalAlign=middle;whiteSpace=wrap;rounded=0;" parent="wPL9N87I6AKQR9O6h3sn-7" vertex="1">
          <mxGeometry x="20" y="390" width="120" height="100" as="geometry" />
        </mxCell>
        <mxCell id="wPL9N87I6AKQR9O6h3sn-31" value="" style="endArrow=none;html=1;rounded=0;exitX=0;exitY=1;exitDx=0;exitDy=0;entryX=1;entryY=0;entryDx=0;entryDy=0;" parent="wPL9N87I6AKQR9O6h3sn-7" source="wPL9N87I6AKQR9O6h3sn-30" target="wPL9N87I6AKQR9O6h3sn-32" edge="1">
          <mxGeometry width="50" height="50" relative="1" as="geometry">
            <mxPoint x="30" y="490" as="sourcePoint" />
            <mxPoint x="360" y="490" as="targetPoint" />
          </mxGeometry>
        </mxCell>
        <mxCell id="wPL9N87I6AKQR9O6h3sn-32" value="&lt;font style=&quot;font-size: 50px;&quot;&gt;F4.json&lt;/font&gt;" style="text;html=1;strokeColor=none;fillColor=none;align=center;verticalAlign=middle;whiteSpace=wrap;rounded=0;" parent="wPL9N87I6AKQR9O6h3sn-7" vertex="1">
          <mxGeometry x="140" y="490" width="210" height="100" as="geometry" />
        </mxCell>
        <mxCell id="wPL9N87I6AKQR9O6h3sn-33" value="&lt;font style=&quot;font-size: 50px;&quot;&gt;534&lt;/font&gt;" style="text;html=1;strokeColor=none;fillColor=none;align=center;verticalAlign=middle;whiteSpace=wrap;rounded=0;" parent="wPL9N87I6AKQR9O6h3sn-7" vertex="1">
          <mxGeometry x="20" y="490" width="120" height="100" as="geometry" />
        </mxCell>
        <mxCell id="wPL9N87I6AKQR9O6h3sn-34" value="" style="endArrow=none;html=1;rounded=0;exitX=0;exitY=0.163;exitDx=0;exitDy=0;entryX=1;entryY=0.163;entryDx=0;entryDy=0;entryPerimeter=0;exitPerimeter=0;" parent="wPL9N87I6AKQR9O6h3sn-7" edge="1">
          <mxGeometry width="50" height="50" relative="1" as="geometry">
            <mxPoint x="20" y="590" as="sourcePoint" />
            <mxPoint x="350" y="590" as="targetPoint" />
          </mxGeometry>
        </mxCell>
        <mxCell id="wPL9N87I6AKQR9O6h3sn-35" value="&lt;font color=&quot;#6b6b6b&quot; style=&quot;font-size: 50px;&quot;&gt;F5.json&lt;/font&gt;" style="text;html=1;strokeColor=none;fillColor=none;align=center;verticalAlign=middle;whiteSpace=wrap;rounded=0;" parent="wPL9N87I6AKQR9O6h3sn-7" vertex="1">
          <mxGeometry x="140" y="590" width="210" height="100" as="geometry" />
        </mxCell>
        <mxCell id="wPL9N87I6AKQR9O6h3sn-36" value="&lt;font color=&quot;#6b6b6b&quot; style=&quot;font-size: 50px;&quot;&gt;156&lt;/font&gt;" style="text;html=1;strokeColor=none;fillColor=none;align=center;verticalAlign=middle;whiteSpace=wrap;rounded=0;" parent="wPL9N87I6AKQR9O6h3sn-7" vertex="1">
          <mxGeometry x="20" y="590" width="120" height="100" as="geometry" />
        </mxCell>
        <mxCell id="wPL9N87I6AKQR9O6h3sn-74" value="&lt;font style=&quot;font-size: 50px;&quot;&gt;F4.json&lt;/font&gt;" style="text;html=1;strokeColor=default;fillColor=none;align=center;verticalAlign=middle;whiteSpace=wrap;rounded=0;" parent="wPL9N87I6AKQR9O6h3sn-7" vertex="1">
          <mxGeometry x="380" y="90" width="170" height="60" as="geometry" />
        </mxCell>
        <mxCell id="wPL9N87I6AKQR9O6h3sn-75" value="&lt;font color=&quot;#6b6b6b&quot; style=&quot;font-size: 50px;&quot;&gt;F5.json&lt;/font&gt;" style="text;html=1;strokeColor=default;fillColor=none;align=center;verticalAlign=middle;whiteSpace=wrap;rounded=0;" parent="wPL9N87I6AKQR9O6h3sn-7" vertex="1">
          <mxGeometry x="380" y="270" width="170" height="60" as="geometry" />
        </mxCell>
        <mxCell id="wPL9N87I6AKQR9O6h3sn-76" value="&lt;div align=&quot;right&quot;&gt;&lt;font color=&quot;#6b6b6b&quot; style=&quot;font-size: 50px;&quot;&gt;Op: updt5&lt;br&gt;&lt;/font&gt;&lt;/div&gt;&lt;div align=&quot;right&quot;&gt;&lt;font color=&quot;#6b6b6b&quot; style=&quot;font-size: 50px;&quot;&gt;Peer: Peer 1&lt;br&gt;&lt;/font&gt;&lt;/div&gt;&lt;div&gt;&lt;font color=&quot;#6b6b6b&quot; style=&quot;font-size: 50px;&quot;&gt;DirectDependency:&lt;/font&gt;&lt;/div&gt;&lt;div&gt;&lt;font color=&quot;#6b6b6b&quot; style=&quot;font-size: 50px;&quot;&gt;{468, 534}&lt;br&gt;&lt;/font&gt;&lt;/div&gt;" style="text;html=1;strokeColor=none;fillColor=none;align=center;verticalAlign=middle;whiteSpace=wrap;rounded=0;" parent="wPL9N87I6AKQR9O6h3sn-7" vertex="1">
          <mxGeometry x="380" y="270" width="520" height="250" as="geometry" />
        </mxCell>
        <mxCell id="wPL9N87I6AKQR9O6h3sn-4" value="&lt;div align=&quot;left&quot;&gt;&lt;br&gt;&lt;/div&gt;" style="rounded=1;whiteSpace=wrap;html=1;" parent="wPL9N87I6AKQR9O6h3sn-7" vertex="1">
          <mxGeometry x="910" y="150" width="570" height="460" as="geometry" />
        </mxCell>
        <mxCell id="1P-1Zz9TcOJ0M_OreXEV-10" value="&lt;font style=&quot;font-size: 50px;&quot; color=&quot;#0000cc&quot;&gt;534&lt;/font&gt;" style="ellipse;whiteSpace=wrap;html=1;aspect=fixed;strokeColor=#0000CC;" parent="wPL9N87I6AKQR9O6h3sn-7" vertex="1">
          <mxGeometry x="1308" y="327.5" width="107.5" height="107.5" as="geometry" />
        </mxCell>
        <mxCell id="1P-1Zz9TcOJ0M_OreXEV-13" value="&lt;font style=&quot;font-size: 50px;&quot; color=&quot;#0000cc&quot;&gt;468&lt;/font&gt;" style="ellipse;whiteSpace=wrap;html=1;aspect=fixed;fontColor=#000000;strokeColor=#0000CC;direction=south;" parent="wPL9N87I6AKQR9O6h3sn-7" vertex="1">
          <mxGeometry x="1070" y="325" width="110" height="110" as="geometry" />
        </mxCell>
        <mxCell id="1P-1Zz9TcOJ0M_OreXEV-14" value="" style="endArrow=classic;html=1;rounded=0;strokeColor=#0000CC;exitX=1;exitY=1;exitDx=0;exitDy=0;entryX=0.5;entryY=0;entryDx=0;entryDy=0;" parent="wPL9N87I6AKQR9O6h3sn-7" source="1P-1Zz9TcOJ0M_OreXEV-13" target="1P-1Zz9TcOJ0M_OreXEV-16" edge="1">
          <mxGeometry width="50" height="50" relative="1" as="geometry">
            <mxPoint x="1080" y="440" as="sourcePoint" />
            <mxPoint x="1040" y="490" as="targetPoint" />
          </mxGeometry>
        </mxCell>
        <mxCell id="1P-1Zz9TcOJ0M_OreXEV-15" value="" style="endArrow=classic;html=1;rounded=0;strokeColor=#0000CC;entryX=0.261;entryY=0.072;entryDx=0;entryDy=0;entryPerimeter=0;" parent="wPL9N87I6AKQR9O6h3sn-7" source="1P-1Zz9TcOJ0M_OreXEV-13" target="1P-1Zz9TcOJ0M_OreXEV-17" edge="1">
          <mxGeometry width="50" height="50" relative="1" as="geometry">
            <mxPoint x="1103" y="420" as="sourcePoint" />
            <mxPoint x="1223" y="520" as="targetPoint" />
          </mxGeometry>
        </mxCell>
        <mxCell id="1P-1Zz9TcOJ0M_OreXEV-16" value="&lt;font style=&quot;font-size: 50px;&quot; color=&quot;#0000cc&quot;&gt;982&lt;/font&gt;" style="ellipse;whiteSpace=wrap;html=1;aspect=fixed;strokeColor=#0000CC;" parent="wPL9N87I6AKQR9O6h3sn-7" vertex="1">
          <mxGeometry x="950" y="480" width="115" height="115" as="geometry" />
        </mxCell>
        <mxCell id="1P-1Zz9TcOJ0M_OreXEV-17" value="&lt;font style=&quot;font-size: 50px;&quot; color=&quot;#0000cc&quot;&gt;794&lt;/font&gt;" style="ellipse;whiteSpace=wrap;html=1;aspect=fixed;fontColor=#000000;strokeColor=#0000CC;" parent="wPL9N87I6AKQR9O6h3sn-7" vertex="1">
          <mxGeometry x="1193" y="475" width="115" height="115" as="geometry" />
        </mxCell>
        <mxCell id="wPL9N87I6AKQR9O6h3sn-6" value="&lt;font style=&quot;font-size: 50px;&quot;&gt;Merkle-DAG&lt;/font&gt;" style="text;html=1;align=center;verticalAlign=middle;whiteSpace=wrap;rounded=0;fillColor=#FFFFFF;strokeColor=#000000;fontColor=#333333;perimeterSpacing=0;" parent="wPL9N87I6AKQR9O6h3sn-7" vertex="1">
          <mxGeometry x="1020" y="80" width="350" height="70" as="geometry" />
        </mxCell>
        <mxCell id="wPL9N87I6AKQR9O6h3sn-80" value="&lt;div align=&quot;right&quot;&gt;&lt;font style=&quot;font-size: 50px;&quot;&gt;Op: updt4&lt;br&gt;&lt;/font&gt;&lt;/div&gt;&lt;div align=&quot;right&quot;&gt;&lt;font style=&quot;font-size: 50px;&quot;&gt;Peer: Peer 3&lt;br&gt;&lt;/font&gt;&lt;/div&gt;&lt;div&gt;&lt;font style=&quot;font-size: 50px;&quot;&gt;DirectDependency: {}&lt;br&gt;&lt;/font&gt;&lt;/div&gt;" style="text;html=1;strokeColor=none;fillColor=none;align=center;verticalAlign=middle;whiteSpace=wrap;rounded=0;" parent="wPL9N87I6AKQR9O6h3sn-7" vertex="1">
          <mxGeometry x="380" y="90" width="520" height="180" as="geometry" />
        </mxCell>
        <mxCell id="wPL9N87I6AKQR9O6h3sn-87" value="&lt;font style=&quot;font-size: 50px;&quot;&gt;RootNodes: {468, 534}&lt;br&gt;&lt;/font&gt;" style="text;html=1;strokeColor=default;fillColor=none;align=center;verticalAlign=middle;whiteSpace=wrap;rounded=0;" parent="wPL9N87I6AKQR9O6h3sn-7" vertex="1">
          <mxGeometry x="950" y="620" width="520" height="80" as="geometry" />
        </mxCell>
        <mxCell id="wPL9N87I6AKQR9O6h3sn-90" value="" style="shape=flexArrow;endArrow=classic;html=1;rounded=0;exitX=0.5;exitY=1;exitDx=0;exitDy=0;endWidth=44.21052631578947;endSize=14.23157894736842;width=25.263157894736842;dashed=1;entryX=0.5;entryY=0;entryDx=0;entryDy=0;" parent="wPL9N87I6AKQR9O6h3sn-7" target="wPL9N87I6AKQR9O6h3sn-92" edge="1">
          <mxGeometry width="50" height="50" relative="1" as="geometry">
            <mxPoint x="1209.5" y="700" as="sourcePoint" />
            <mxPoint x="1209.68" y="800" as="targetPoint" />
          </mxGeometry>
        </mxCell>
        <mxCell id="wPL9N87I6AKQR9O6h3sn-92" value="&lt;div&gt;&lt;font color=&quot;#6b6b6b&quot; style=&quot;font-size: 50px;&quot;&gt;RootNodes: {156}&lt;/font&gt;&lt;/div&gt;" style="text;html=1;strokeColor=default;fillColor=none;align=center;verticalAlign=middle;whiteSpace=wrap;rounded=0;dashed=1;" parent="wPL9N87I6AKQR9O6h3sn-7" vertex="1">
          <mxGeometry x="950" y="770" width="520" height="80" as="geometry" />
        </mxCell>
        <mxCell id="1cgQZR3NjWRQ5NGcXOkT-1" value="&lt;font color=&quot;#990000&quot; style=&quot;font-size: 50px;&quot;&gt;Step 4&lt;/font&gt;&lt;font color=&quot;#990000&quot;&gt;&amp;nbsp;&amp;nbsp;&amp;nbsp;&amp;nbsp;&amp;nbsp;&amp;nbsp;&amp;nbsp;&amp;nbsp;&amp;nbsp;&amp;nbsp;&amp;nbsp;&amp;nbsp;&amp;nbsp;&amp;nbsp;&amp;nbsp;&amp;nbsp;&amp;nbsp;&amp;nbsp;&amp;nbsp;&amp;nbsp;&amp;nbsp;&amp;nbsp;&amp;nbsp;&amp;nbsp;&amp;nbsp;&amp;nbsp;&amp;nbsp;&amp;nbsp;&amp;nbsp;&amp;nbsp;&amp;nbsp;&amp;nbsp;&amp;nbsp;&amp;nbsp;&amp;nbsp;&amp;nbsp;&amp;nbsp;&amp;nbsp;&amp;nbsp;&amp;nbsp;&amp;nbsp;&amp;nbsp;&amp;nbsp;&amp;nbsp;&amp;nbsp;&amp;nbsp;&amp;nbsp; &lt;/font&gt;" style="shape=hexagon;perimeter=hexagonPerimeter2;whiteSpace=wrap;html=1;fixedSize=1;size=180;fillColor=#FFEBEB;" parent="wPL9N87I6AKQR9O6h3sn-7" vertex="1">
          <mxGeometry x="930" y="155" width="490.5" height="140" as="geometry" />
        </mxCell>
        <mxCell id="1P-1Zz9TcOJ0M_OreXEV-4" value="&lt;font color=&quot;#6b6b6b&quot; style=&quot;font-size: 50px;&quot;&gt;156&lt;/font&gt;" style="ellipse;whiteSpace=wrap;html=1;aspect=fixed;fontColor=#000000;dashed=1;" parent="wPL9N87I6AKQR9O6h3sn-7" vertex="1">
          <mxGeometry x="1198" y="170" width="110" height="110" as="geometry" />
        </mxCell>
        <mxCell id="wPL9N87I6AKQR9O6h3sn-1" value="" style="endArrow=classic;html=1;rounded=0;exitX=1;exitY=1;exitDx=0;exitDy=0;strokeColor=#000000;dashed=1;entryX=0.5;entryY=0;entryDx=0;entryDy=0;" parent="wPL9N87I6AKQR9O6h3sn-7" source="1P-1Zz9TcOJ0M_OreXEV-4" target="1P-1Zz9TcOJ0M_OreXEV-10" edge="1">
          <mxGeometry width="50" height="50" relative="1" as="geometry">
            <mxPoint x="1260" y="250" as="sourcePoint" />
            <mxPoint x="1320" y="330" as="targetPoint" />
          </mxGeometry>
        </mxCell>
        <mxCell id="wPL9N87I6AKQR9O6h3sn-3" value="" style="endArrow=classic;html=1;rounded=0;strokeColor=#000000;dashed=1;entryX=0;entryY=0.5;entryDx=0;entryDy=0;exitX=0;exitY=1;exitDx=0;exitDy=0;" parent="wPL9N87I6AKQR9O6h3sn-7" source="1P-1Zz9TcOJ0M_OreXEV-4" target="1P-1Zz9TcOJ0M_OreXEV-13" edge="1">
          <mxGeometry width="50" height="50" relative="1" as="geometry">
            <mxPoint x="1810" y="410" as="sourcePoint" />
            <mxPoint x="1380" y="350" as="targetPoint" />
          </mxGeometry>
        </mxCell>
        <mxCell id="wPL9N87I6AKQR9O6h3sn-98" value="" style="shape=note;whiteSpace=wrap;html=1;backgroundOutline=1;darkOpacity=0.05;" parent="1" vertex="1">
          <mxGeometry x="-425" y="320" width="460" height="260" as="geometry" />
        </mxCell>
        <mxCell id="wPL9N87I6AKQR9O6h3sn-94" value="&lt;div align=&quot;right&quot;&gt;&lt;font color=&quot;#6b6b6b&quot; style=&quot;font-size: 50px;&quot;&gt;Op: updt5&lt;br&gt;&lt;/font&gt;&lt;/div&gt;&lt;div align=&quot;right&quot;&gt;&lt;font color=&quot;#6b6b6b&quot; style=&quot;font-size: 50px;&quot;&gt;Peer: Peer 1&lt;br&gt;&lt;/font&gt;&lt;/div&gt;&lt;div&gt;&lt;font color=&quot;#6b6b6b&quot; style=&quot;font-size: 50px;&quot;&gt;DirectDependency:&lt;/font&gt;&lt;/div&gt;&lt;div&gt;&lt;font color=&quot;#6b6b6b&quot; style=&quot;font-size: 50px;&quot;&gt;{468, 534}&lt;br&gt;&lt;/font&gt;&lt;/div&gt;" style="text;html=1;strokeColor=none;fillColor=none;align=center;verticalAlign=middle;whiteSpace=wrap;rounded=0;" parent="1" vertex="1">
          <mxGeometry x="-445" y="325" width="480" height="250" as="geometry" />
        </mxCell>
        <mxCell id="wPL9N87I6AKQR9O6h3sn-102" value="&lt;font style=&quot;font-size: 50px;&quot;&gt;IPFS, Store me the file &quot;F5.json&quot;&lt;br&gt;&lt;/font&gt;" style="text;html=1;strokeColor=none;fillColor=none;align=center;verticalAlign=middle;whiteSpace=wrap;rounded=0;" parent="1" vertex="1">
          <mxGeometry x="-905" y="320" width="420" height="280" as="geometry" />
        </mxCell>
        <mxCell id="wPL9N87I6AKQR9O6h3sn-103" value="" style="shape=flexArrow;endArrow=classic;html=1;rounded=0;width=37.77777777777778;endSize=8.392592592592592;" parent="1" edge="1">
          <mxGeometry width="50" height="50" relative="1" as="geometry">
            <mxPoint x="-510" y="464" as="sourcePoint" />
            <mxPoint x="-430" y="464" as="targetPoint" />
          </mxGeometry>
        </mxCell>
        <mxCell id="wPL9N87I6AKQR9O6h3sn-106" value="&lt;div style=&quot;font-size: 50px;&quot;&gt;&lt;font style=&quot;font-size: 50px;&quot;&gt;Done, its CID is :&lt;/font&gt;&lt;/div&gt;&lt;div style=&quot;font-size: 50px;&quot;&gt;&lt;font style=&quot;font-size: 50px;&quot;&gt;156&lt;font style=&quot;font-size: 50px;&quot;&gt;&lt;br&gt;&lt;/font&gt;&lt;/font&gt;&lt;/div&gt;" style="shape=callout;whiteSpace=wrap;html=1;perimeter=calloutPerimeter;size=60;position=0.84;base=30;position2=1;direction=west;" parent="1" vertex="1">
          <mxGeometry x="120" y="330" width="380" height="180" as="geometry" />
        </mxCell>
        <mxCell id="wPL9N87I6AKQR9O6h3sn-110" value="&lt;font style=&quot;font-size: 75px;&quot;&gt;&lt;font style=&quot;font-size: 75px;&quot; color=&quot;#990000&quot;&gt;STEP 1 : IPFS Send&lt;/font&gt;&lt;br&gt;&lt;/font&gt;" style="text;html=1;align=center;verticalAlign=middle;resizable=0;points=[];autosize=1;strokeColor=none;fillColor=none;" parent="1" vertex="1">
          <mxGeometry x="-1605" y="410" width="700" height="100" as="geometry" />
        </mxCell>
        <mxCell id="wPL9N87I6AKQR9O6h3sn-111" value="" style="shape=hexagon;perimeter=hexagonPerimeter2;whiteSpace=wrap;html=1;fixedSize=1;size=180;fillColor=#FFEBEB;" parent="1" vertex="1">
          <mxGeometry x="-1530" y="1530" width="1700" height="220" as="geometry" />
        </mxCell>
        <mxCell id="wPL9N87I6AKQR9O6h3sn-112" value="&lt;font style=&quot;font-size: 75px;&quot;&gt;&lt;font style=&quot;font-size: 75px;&quot; color=&quot;#990000&quot;&gt;STEP 2 : LibP2P PubSub&lt;/font&gt;&lt;br&gt;&lt;/font&gt;" style="text;html=1;align=center;verticalAlign=middle;resizable=0;points=[];autosize=1;strokeColor=none;fillColor=none;" parent="1" vertex="1">
          <mxGeometry x="-1420" y="1620" width="870" height="100" as="geometry" />
        </mxCell>
        <mxCell id="wPL9N87I6AKQR9O6h3sn-113" value="" style="shape=callout;whiteSpace=wrap;html=1;perimeter=calloutPerimeter;position2=1;size=90;position=0.83;direction=west;base=58;" parent="1" vertex="1">
          <mxGeometry x="-510" y="1490" width="460" height="210" as="geometry" />
        </mxCell>
        <mxCell id="wPL9N87I6AKQR9O6h3sn-114" value="&lt;font style=&quot;font-size: 50px;&quot;&gt;New update : 156&lt;br&gt;&lt;/font&gt;" style="text;html=1;align=center;verticalAlign=middle;resizable=0;points=[];autosize=1;strokeColor=none;fillColor=none;" parent="1" vertex="1">
          <mxGeometry x="-485" y="1610" width="410" height="70" as="geometry" />
        </mxCell>
        <mxCell id="wPL9N87I6AKQR9O6h3sn-171" value="&lt;div&gt;&lt;font style=&quot;font-size: 50px;&quot;&gt;Peer 2&lt;/font&gt;&lt;/div&gt;" style="swimlane;whiteSpace=wrap;html=1;startSize=70;separatorColor=none;glass=0;" parent="1" vertex="1">
          <mxGeometry x="-640" y="2990" width="1500" height="880" as="geometry">
            <mxRectangle x="-620" y="2160" width="190" height="70" as="alternateBounds" />
          </mxGeometry>
        </mxCell>
        <mxCell id="wPL9N87I6AKQR9O6h3sn-172" value="" style="rounded=0;whiteSpace=wrap;html=1;" parent="wPL9N87I6AKQR9O6h3sn-171" vertex="1">
          <mxGeometry y="70" width="1500" height="810" as="geometry" />
        </mxCell>
        <mxCell id="wPL9N87I6AKQR9O6h3sn-176" value="" style="shape=note;whiteSpace=wrap;html=1;backgroundOutline=1;darkOpacity=0.05;" parent="wPL9N87I6AKQR9O6h3sn-171" vertex="1">
          <mxGeometry x="380" y="90" width="520" height="260" as="geometry" />
        </mxCell>
        <mxCell id="wPL9N87I6AKQR9O6h3sn-177" value="" style="shape=note;whiteSpace=wrap;html=1;backgroundOutline=1;darkOpacity=0.05;size=23;" parent="wPL9N87I6AKQR9O6h3sn-171" vertex="1">
          <mxGeometry x="380" y="350" width="520" height="200" as="geometry" />
        </mxCell>
        <mxCell id="wPL9N87I6AKQR9O6h3sn-178" value="" style="shape=note;whiteSpace=wrap;html=1;backgroundOutline=1;darkOpacity=0.05;" parent="wPL9N87I6AKQR9O6h3sn-171" vertex="1">
          <mxGeometry x="380" y="550" width="520" height="260" as="geometry" />
        </mxCell>
        <mxCell id="wPL9N87I6AKQR9O6h3sn-179" value="" style="shape=internalStorage;whiteSpace=wrap;html=1;backgroundOutline=1;dx=120;dy=100;" parent="wPL9N87I6AKQR9O6h3sn-171" vertex="1">
          <mxGeometry x="20" y="90" width="330" height="690" as="geometry" />
        </mxCell>
        <mxCell id="wPL9N87I6AKQR9O6h3sn-180" value="&lt;div&gt;&lt;font style=&quot;font-size: 50px;&quot;&gt;CID&lt;/font&gt;&lt;/div&gt;" style="text;html=1;strokeColor=none;fillColor=none;align=center;verticalAlign=middle;whiteSpace=wrap;rounded=0;" parent="wPL9N87I6AKQR9O6h3sn-171" vertex="1">
          <mxGeometry x="20" y="90" width="120" height="100" as="geometry" />
        </mxCell>
        <mxCell id="wPL9N87I6AKQR9O6h3sn-181" value="&lt;font style=&quot;font-size: 50px;&quot;&gt;FILE&lt;/font&gt;" style="text;html=1;strokeColor=none;fillColor=none;align=center;verticalAlign=middle;whiteSpace=wrap;rounded=0;" parent="wPL9N87I6AKQR9O6h3sn-171" vertex="1">
          <mxGeometry x="140" y="90" width="210" height="100" as="geometry" />
        </mxCell>
        <mxCell id="wPL9N87I6AKQR9O6h3sn-182" value="" style="endArrow=none;html=1;rounded=0;exitX=0;exitY=0.163;exitDx=0;exitDy=0;entryX=1;entryY=0.163;entryDx=0;entryDy=0;entryPerimeter=0;exitPerimeter=0;" parent="wPL9N87I6AKQR9O6h3sn-171" edge="1">
          <mxGeometry width="50" height="50" relative="1" as="geometry">
            <mxPoint x="20" y="290.00000000000006" as="sourcePoint" />
            <mxPoint x="350" y="290.00000000000006" as="targetPoint" />
          </mxGeometry>
        </mxCell>
        <mxCell id="wPL9N87I6AKQR9O6h3sn-183" value="&lt;font style=&quot;font-size: 50px;&quot;&gt;982&lt;/font&gt;" style="text;html=1;strokeColor=none;fillColor=none;align=center;verticalAlign=middle;whiteSpace=wrap;rounded=0;" parent="wPL9N87I6AKQR9O6h3sn-171" vertex="1">
          <mxGeometry x="20" y="190" width="120" height="100" as="geometry" />
        </mxCell>
        <mxCell id="wPL9N87I6AKQR9O6h3sn-184" value="&lt;font style=&quot;font-size: 50px;&quot;&gt;F1.json&lt;/font&gt;" style="text;html=1;strokeColor=none;fillColor=none;align=center;verticalAlign=middle;whiteSpace=wrap;rounded=0;" parent="wPL9N87I6AKQR9O6h3sn-171" vertex="1">
          <mxGeometry x="140" y="190" width="210" height="100" as="geometry" />
        </mxCell>
        <mxCell id="wPL9N87I6AKQR9O6h3sn-185" value="&lt;font style=&quot;font-size: 50px;&quot;&gt;F2.json&lt;/font&gt;" style="text;html=1;strokeColor=none;fillColor=none;align=center;verticalAlign=middle;whiteSpace=wrap;rounded=0;" parent="wPL9N87I6AKQR9O6h3sn-171" vertex="1">
          <mxGeometry x="140" y="290" width="210" height="100" as="geometry" />
        </mxCell>
        <mxCell id="wPL9N87I6AKQR9O6h3sn-186" value="&lt;font style=&quot;font-size: 50px;&quot;&gt;794&lt;/font&gt;" style="text;html=1;strokeColor=none;fillColor=none;align=center;verticalAlign=middle;whiteSpace=wrap;rounded=0;" parent="wPL9N87I6AKQR9O6h3sn-171" vertex="1">
          <mxGeometry x="20" y="290" width="120" height="100" as="geometry" />
        </mxCell>
        <mxCell id="wPL9N87I6AKQR9O6h3sn-187" value="" style="endArrow=none;html=1;rounded=0;exitX=0;exitY=0.163;exitDx=0;exitDy=0;entryX=1;entryY=0.163;entryDx=0;entryDy=0;entryPerimeter=0;exitPerimeter=0;" parent="wPL9N87I6AKQR9O6h3sn-171" edge="1">
          <mxGeometry width="50" height="50" relative="1" as="geometry">
            <mxPoint x="20" y="390" as="sourcePoint" />
            <mxPoint x="350" y="390" as="targetPoint" />
          </mxGeometry>
        </mxCell>
        <mxCell id="wPL9N87I6AKQR9O6h3sn-188" value="&lt;font style=&quot;font-size: 50px;&quot;&gt;F3.json&lt;/font&gt;" style="text;html=1;strokeColor=none;fillColor=none;align=center;verticalAlign=middle;whiteSpace=wrap;rounded=0;" parent="wPL9N87I6AKQR9O6h3sn-171" vertex="1">
          <mxGeometry x="140" y="390" width="210" height="100" as="geometry" />
        </mxCell>
        <mxCell id="wPL9N87I6AKQR9O6h3sn-189" value="&lt;div&gt;&lt;font style=&quot;font-size: 50px;&quot;&gt;468&lt;/font&gt;&lt;/div&gt;" style="text;html=1;strokeColor=none;fillColor=none;align=center;verticalAlign=middle;whiteSpace=wrap;rounded=0;" parent="wPL9N87I6AKQR9O6h3sn-171" vertex="1">
          <mxGeometry x="20" y="390" width="120" height="100" as="geometry" />
        </mxCell>
        <mxCell id="wPL9N87I6AKQR9O6h3sn-190" value="" style="endArrow=none;html=1;rounded=0;exitX=0;exitY=1;exitDx=0;exitDy=0;entryX=1;entryY=0;entryDx=0;entryDy=0;" parent="wPL9N87I6AKQR9O6h3sn-171" source="wPL9N87I6AKQR9O6h3sn-189" target="wPL9N87I6AKQR9O6h3sn-191" edge="1">
          <mxGeometry width="50" height="50" relative="1" as="geometry">
            <mxPoint x="30" y="490" as="sourcePoint" />
            <mxPoint x="360" y="490" as="targetPoint" />
          </mxGeometry>
        </mxCell>
        <mxCell id="wPL9N87I6AKQR9O6h3sn-191" value="&lt;font style=&quot;font-size: 50px;&quot;&gt;F4.json&lt;/font&gt;" style="text;html=1;strokeColor=none;fillColor=none;align=center;verticalAlign=middle;whiteSpace=wrap;rounded=0;" parent="wPL9N87I6AKQR9O6h3sn-171" vertex="1">
          <mxGeometry x="140" y="490" width="210" height="100" as="geometry" />
        </mxCell>
        <mxCell id="wPL9N87I6AKQR9O6h3sn-192" value="&lt;div&gt;&lt;font style=&quot;font-size: 50px;&quot;&gt;794&lt;/font&gt;&lt;/div&gt;" style="text;html=1;strokeColor=none;fillColor=none;align=center;verticalAlign=middle;whiteSpace=wrap;rounded=0;" parent="wPL9N87I6AKQR9O6h3sn-171" vertex="1">
          <mxGeometry x="20" y="490" width="120" height="100" as="geometry" />
        </mxCell>
        <mxCell id="wPL9N87I6AKQR9O6h3sn-193" value="" style="endArrow=none;html=1;rounded=0;exitX=0;exitY=0.163;exitDx=0;exitDy=0;entryX=1;entryY=0.163;entryDx=0;entryDy=0;entryPerimeter=0;exitPerimeter=0;" parent="wPL9N87I6AKQR9O6h3sn-171" edge="1">
          <mxGeometry width="50" height="50" relative="1" as="geometry">
            <mxPoint x="20" y="590" as="sourcePoint" />
            <mxPoint x="350" y="590" as="targetPoint" />
          </mxGeometry>
        </mxCell>
        <mxCell id="wPL9N87I6AKQR9O6h3sn-194" value="&lt;font color=&quot;#6b6b6b&quot; style=&quot;font-size: 50px;&quot;&gt;F5.json&lt;/font&gt;" style="text;html=1;strokeColor=none;fillColor=none;align=center;verticalAlign=middle;whiteSpace=wrap;rounded=0;" parent="wPL9N87I6AKQR9O6h3sn-171" vertex="1">
          <mxGeometry x="140" y="590" width="210" height="100" as="geometry" />
        </mxCell>
        <mxCell id="wPL9N87I6AKQR9O6h3sn-195" value="&lt;div&gt;&lt;font color=&quot;#6b6b6b&quot; style=&quot;font-size: 50px;&quot;&gt;534&lt;/font&gt;&lt;/div&gt;" style="text;html=1;strokeColor=none;fillColor=none;align=center;verticalAlign=middle;whiteSpace=wrap;rounded=0;" parent="wPL9N87I6AKQR9O6h3sn-171" vertex="1">
          <mxGeometry x="20" y="590" width="120" height="100" as="geometry" />
        </mxCell>
        <mxCell id="wPL9N87I6AKQR9O6h3sn-196" value="" style="endArrow=none;html=1;rounded=0;exitX=0;exitY=0.163;exitDx=0;exitDy=0;entryX=1;entryY=0.163;entryDx=0;entryDy=0;entryPerimeter=0;exitPerimeter=0;" parent="wPL9N87I6AKQR9O6h3sn-171" edge="1">
          <mxGeometry width="50" height="50" relative="1" as="geometry">
            <mxPoint x="20" y="690" as="sourcePoint" />
            <mxPoint x="350" y="690" as="targetPoint" />
          </mxGeometry>
        </mxCell>
        <mxCell id="wPL9N87I6AKQR9O6h3sn-201" value="&lt;font style=&quot;font-size: 50px;&quot;&gt;F4.json&lt;/font&gt;" style="text;html=1;strokeColor=default;fillColor=none;align=center;verticalAlign=middle;whiteSpace=wrap;rounded=0;" parent="wPL9N87I6AKQR9O6h3sn-171" vertex="1">
          <mxGeometry x="380" y="90" width="170" height="60" as="geometry" />
        </mxCell>
        <mxCell id="wPL9N87I6AKQR9O6h3sn-202" value="&lt;font color=&quot;#6b6b6b&quot; style=&quot;font-size: 50px;&quot;&gt;F5.json&lt;/font&gt;" style="text;html=1;strokeColor=default;fillColor=none;align=center;verticalAlign=middle;whiteSpace=wrap;rounded=0;" parent="wPL9N87I6AKQR9O6h3sn-171" vertex="1">
          <mxGeometry x="380" y="350" width="170" height="60" as="geometry" />
        </mxCell>
        <mxCell id="wPL9N87I6AKQR9O6h3sn-203" value="&lt;font color=&quot;#6b6b6b&quot; style=&quot;font-size: 50px;&quot;&gt;F6.json&lt;/font&gt;" style="text;html=1;strokeColor=default;fillColor=none;align=center;verticalAlign=middle;whiteSpace=wrap;rounded=0;" parent="wPL9N87I6AKQR9O6h3sn-171" vertex="1">
          <mxGeometry x="380" y="550" width="170" height="60" as="geometry" />
        </mxCell>
        <mxCell id="wPL9N87I6AKQR9O6h3sn-204" value="&lt;div align=&quot;right&quot;&gt;&lt;font color=&quot;#6b6b6b&quot; style=&quot;font-size: 50px;&quot;&gt;Op: updt5&lt;br&gt;&lt;/font&gt;&lt;/div&gt;&lt;div align=&quot;right&quot;&gt;&lt;font color=&quot;#6b6b6b&quot; style=&quot;font-size: 50px;&quot;&gt;Peer: Peer 1&lt;br&gt;&lt;/font&gt;&lt;/div&gt;&lt;div&gt;&lt;font color=&quot;#6b6b6b&quot; style=&quot;font-size: 50px;&quot;&gt;DirectDependency:&lt;/font&gt;&lt;/div&gt;&lt;div&gt;&lt;font color=&quot;#6b6b6b&quot; style=&quot;font-size: 50px;&quot;&gt;{468, 534}&lt;br&gt;&lt;/font&gt;&lt;/div&gt;" style="text;html=1;strokeColor=none;fillColor=none;align=center;verticalAlign=middle;whiteSpace=wrap;rounded=0;" parent="wPL9N87I6AKQR9O6h3sn-171" vertex="1">
          <mxGeometry x="380" y="550" width="520" height="260" as="geometry" />
        </mxCell>
        <mxCell id="wPL9N87I6AKQR9O6h3sn-205" value="&lt;div align=&quot;left&quot;&gt;&lt;br&gt;&lt;/div&gt;" style="rounded=1;whiteSpace=wrap;html=1;" parent="wPL9N87I6AKQR9O6h3sn-171" vertex="1">
          <mxGeometry x="910" y="150" width="570" height="450" as="geometry" />
        </mxCell>
        <mxCell id="wPL9N87I6AKQR9O6h3sn-206" value="&lt;font color=&quot;#6b6b6b&quot; style=&quot;font-size: 50px;&quot;&gt;534&lt;/font&gt;" style="ellipse;whiteSpace=wrap;html=1;aspect=fixed;strokeColor=#6B6B6B;dashed=1;" parent="wPL9N87I6AKQR9O6h3sn-171" vertex="1">
          <mxGeometry x="1308" y="327.5" width="107.5" height="107.5" as="geometry" />
        </mxCell>
        <mxCell id="wPL9N87I6AKQR9O6h3sn-207" value="&lt;font style=&quot;font-size: 50px;&quot; color=&quot;#0000cc&quot;&gt;468&lt;/font&gt;" style="ellipse;whiteSpace=wrap;html=1;aspect=fixed;fontColor=#000000;strokeColor=#0000CC;direction=south;" parent="wPL9N87I6AKQR9O6h3sn-171" vertex="1">
          <mxGeometry x="1070" y="325" width="110" height="110" as="geometry" />
        </mxCell>
        <mxCell id="wPL9N87I6AKQR9O6h3sn-208" value="" style="endArrow=classic;html=1;rounded=0;strokeColor=#0000CC;exitX=1;exitY=1;exitDx=0;exitDy=0;entryX=0.5;entryY=0;entryDx=0;entryDy=0;" parent="wPL9N87I6AKQR9O6h3sn-171" source="wPL9N87I6AKQR9O6h3sn-207" target="wPL9N87I6AKQR9O6h3sn-210" edge="1">
          <mxGeometry width="50" height="50" relative="1" as="geometry">
            <mxPoint x="1080" y="440" as="sourcePoint" />
            <mxPoint x="1040" y="490" as="targetPoint" />
          </mxGeometry>
        </mxCell>
        <mxCell id="wPL9N87I6AKQR9O6h3sn-209" value="" style="endArrow=classic;html=1;rounded=0;strokeColor=#0000CC;entryX=0.261;entryY=0.072;entryDx=0;entryDy=0;entryPerimeter=0;" parent="wPL9N87I6AKQR9O6h3sn-171" source="wPL9N87I6AKQR9O6h3sn-207" target="wPL9N87I6AKQR9O6h3sn-211" edge="1">
          <mxGeometry width="50" height="50" relative="1" as="geometry">
            <mxPoint x="1103" y="420" as="sourcePoint" />
            <mxPoint x="1223" y="520" as="targetPoint" />
          </mxGeometry>
        </mxCell>
        <mxCell id="wPL9N87I6AKQR9O6h3sn-210" value="&lt;font style=&quot;font-size: 50px;&quot; color=&quot;#0000cc&quot;&gt;982&lt;/font&gt;" style="ellipse;whiteSpace=wrap;html=1;aspect=fixed;strokeColor=#0000CC;" parent="wPL9N87I6AKQR9O6h3sn-171" vertex="1">
          <mxGeometry x="950" y="480" width="115" height="115" as="geometry" />
        </mxCell>
        <mxCell id="wPL9N87I6AKQR9O6h3sn-211" value="&lt;font style=&quot;font-size: 50px;&quot; color=&quot;#0000cc&quot;&gt;794&lt;/font&gt;" style="ellipse;whiteSpace=wrap;html=1;aspect=fixed;fontColor=#000000;strokeColor=#0000CC;" parent="wPL9N87I6AKQR9O6h3sn-171" vertex="1">
          <mxGeometry x="1193" y="475" width="115" height="115" as="geometry" />
        </mxCell>
        <mxCell id="wPL9N87I6AKQR9O6h3sn-214" value="&lt;font style=&quot;font-size: 50px;&quot;&gt;Merkle-DAG&lt;/font&gt;" style="text;html=1;align=center;verticalAlign=middle;whiteSpace=wrap;rounded=0;fillColor=#FFFFFF;strokeColor=#000000;fontColor=#333333;perimeterSpacing=0;" parent="wPL9N87I6AKQR9O6h3sn-171" vertex="1">
          <mxGeometry x="1050" y="80" width="290" height="70" as="geometry" />
        </mxCell>
        <mxCell id="wPL9N87I6AKQR9O6h3sn-216" value="&lt;div align=&quot;right&quot;&gt;&lt;font color=&quot;#6b6b6b&quot; style=&quot;font-size: 50px;&quot;&gt;Op: updt4&lt;br&gt;&lt;/font&gt;&lt;/div&gt;&lt;div align=&quot;right&quot;&gt;&lt;font color=&quot;#6b6b6b&quot; style=&quot;font-size: 50px;&quot;&gt;Peer: Peer 3&lt;br&gt;&lt;/font&gt;&lt;/div&gt;&lt;div&gt;&lt;font color=&quot;#6b6b6b&quot; style=&quot;font-size: 50px;&quot;&gt;DirectDependency: {}&lt;br&gt;&lt;/font&gt;&lt;/div&gt;" style="text;html=1;strokeColor=none;fillColor=none;align=center;verticalAlign=middle;whiteSpace=wrap;rounded=0;" parent="wPL9N87I6AKQR9O6h3sn-171" vertex="1">
          <mxGeometry x="380" y="350" width="520" height="180" as="geometry" />
        </mxCell>
        <mxCell id="wPL9N87I6AKQR9O6h3sn-217" value="&lt;div align=&quot;right&quot;&gt;&lt;font style=&quot;font-size: 50px;&quot;&gt;Op: updt6&lt;br&gt;&lt;/font&gt;&lt;/div&gt;&lt;div align=&quot;right&quot;&gt;&lt;font style=&quot;font-size: 50px;&quot;&gt;Peer: Peer 2&lt;br&gt;&lt;/font&gt;&lt;/div&gt;&lt;div&gt;&lt;font style=&quot;font-size: 50px;&quot;&gt;DirectDependency:&amp;nbsp;&lt;/font&gt;&lt;/div&gt;&lt;div&gt;&lt;font style=&quot;font-size: 50px;&quot;&gt;{468}&lt;br&gt;&lt;/font&gt;&lt;/div&gt;" style="text;html=1;strokeColor=none;fillColor=none;align=center;verticalAlign=middle;whiteSpace=wrap;rounded=0;" parent="wPL9N87I6AKQR9O6h3sn-171" vertex="1">
          <mxGeometry x="380" y="90" width="520" height="260" as="geometry" />
        </mxCell>
        <mxCell id="wPL9N87I6AKQR9O6h3sn-226" value="" style="endArrow=classic;html=1;rounded=0;strokeColor=#0000CC;entryX=0;entryY=1;entryDx=0;entryDy=0;exitX=0.679;exitY=0.974;exitDx=0;exitDy=0;exitPerimeter=0;" parent="wPL9N87I6AKQR9O6h3sn-171" source="wPL9N87I6AKQR9O6h3sn-224" target="wPL9N87I6AKQR9O6h3sn-207" edge="1">
          <mxGeometry width="50" height="50" relative="1" as="geometry">
            <mxPoint x="1015" y="282.5" as="sourcePoint" />
            <mxPoint x="1075" y="345.5" as="targetPoint" />
          </mxGeometry>
        </mxCell>
        <mxCell id="wPL9N87I6AKQR9O6h3sn-287" value="" style="endArrow=none;html=1;rounded=0;exitX=0;exitY=0.163;exitDx=0;exitDy=0;entryX=1;entryY=0.163;entryDx=0;entryDy=0;entryPerimeter=0;exitPerimeter=0;" parent="wPL9N87I6AKQR9O6h3sn-171" edge="1">
          <mxGeometry width="50" height="50" relative="1" as="geometry">
            <mxPoint x="20" y="690" as="sourcePoint" />
            <mxPoint x="350" y="690" as="targetPoint" />
          </mxGeometry>
        </mxCell>
        <mxCell id="wPL9N87I6AKQR9O6h3sn-288" value="&lt;font color=&quot;#6b6b6b&quot; style=&quot;font-size: 50px;&quot;&gt;F6.json&lt;/font&gt;" style="text;html=1;strokeColor=none;fillColor=none;align=center;verticalAlign=middle;whiteSpace=wrap;rounded=0;" parent="wPL9N87I6AKQR9O6h3sn-171" vertex="1">
          <mxGeometry x="140" y="690" width="210" height="100" as="geometry" />
        </mxCell>
        <mxCell id="wPL9N87I6AKQR9O6h3sn-289" value="&lt;font color=&quot;#6b6b6b&quot; style=&quot;font-size: 50px;&quot;&gt;156&lt;/font&gt;" style="text;html=1;strokeColor=none;fillColor=none;align=center;verticalAlign=middle;whiteSpace=wrap;rounded=0;" parent="wPL9N87I6AKQR9O6h3sn-171" vertex="1">
          <mxGeometry x="20" y="690" width="120" height="100" as="geometry" />
        </mxCell>
        <mxCell id="fPi5jzbXd19ijoVux2jO-11" value="&lt;font style=&quot;font-size: 50px;&quot;&gt;RootNodes: {468, 794}&lt;br&gt;&lt;/font&gt;" style="text;html=1;strokeColor=default;fillColor=none;align=center;verticalAlign=middle;whiteSpace=wrap;rounded=0;" parent="wPL9N87I6AKQR9O6h3sn-171" vertex="1">
          <mxGeometry x="920" y="610" width="520" height="80" as="geometry" />
        </mxCell>
        <mxCell id="fPi5jzbXd19ijoVux2jO-12" value="" style="shape=flexArrow;endArrow=classic;html=1;rounded=0;endWidth=44.21052631578947;endSize=14.23157894736842;width=25.263157894736842;dashed=1;exitX=0.5;exitY=1;exitDx=0;exitDy=0;" parent="wPL9N87I6AKQR9O6h3sn-171" source="fPi5jzbXd19ijoVux2jO-11" edge="1">
          <mxGeometry width="50" height="50" relative="1" as="geometry">
            <mxPoint x="1180" y="700" as="sourcePoint" />
            <mxPoint x="1180" y="770" as="targetPoint" />
          </mxGeometry>
        </mxCell>
        <mxCell id="fPi5jzbXd19ijoVux2jO-13" value="&lt;div&gt;&lt;font color=&quot;#6b6b6b&quot; style=&quot;font-size: 50px;&quot;&gt;RootNodes: {794, 159}&lt;/font&gt;&lt;/div&gt;" style="text;html=1;strokeColor=default;fillColor=none;align=center;verticalAlign=middle;whiteSpace=wrap;rounded=0;dashed=1;" parent="wPL9N87I6AKQR9O6h3sn-171" vertex="1">
          <mxGeometry x="920" y="770" width="520" height="80" as="geometry" />
        </mxCell>
        <mxCell id="1cgQZR3NjWRQ5NGcXOkT-2" value="&lt;div align=&quot;right&quot;&gt;&lt;font color=&quot;#990000&quot; style=&quot;font-size: 50px;&quot;&gt;Step 4&amp;nbsp;&amp;nbsp;&amp;nbsp;&amp;nbsp; &lt;br&gt;&lt;/font&gt;&lt;/div&gt;" style="shape=hexagon;perimeter=hexagonPerimeter2;whiteSpace=wrap;html=1;fixedSize=1;size=180;fillColor=#FFEBEB;align=right;" parent="wPL9N87I6AKQR9O6h3sn-171" vertex="1">
          <mxGeometry x="990" y="162.5" width="540" height="155" as="geometry" />
        </mxCell>
        <mxCell id="wPL9N87I6AKQR9O6h3sn-224" value="&lt;font style=&quot;font-size: 50px;&quot; color=&quot;#0000cc&quot;&gt;794&lt;/font&gt;" style="ellipse;whiteSpace=wrap;html=1;aspect=fixed;fontColor=#000000;strokeColor=#0000CC;" parent="wPL9N87I6AKQR9O6h3sn-171" vertex="1">
          <mxGeometry x="960" y="167.5" width="115" height="115" as="geometry" />
        </mxCell>
        <mxCell id="wPL9N87I6AKQR9O6h3sn-213" value="" style="endArrow=classic;html=1;rounded=0;strokeColor=#000000;dashed=1;entryX=0;entryY=0.5;entryDx=0;entryDy=0;exitX=0;exitY=1;exitDx=0;exitDy=0;" parent="wPL9N87I6AKQR9O6h3sn-171" source="wPL9N87I6AKQR9O6h3sn-215" target="wPL9N87I6AKQR9O6h3sn-207" edge="1">
          <mxGeometry width="50" height="50" relative="1" as="geometry">
            <mxPoint x="1810" y="410" as="sourcePoint" />
            <mxPoint x="1380" y="350" as="targetPoint" />
          </mxGeometry>
        </mxCell>
        <mxCell id="wPL9N87I6AKQR9O6h3sn-212" value="" style="endArrow=classic;html=1;rounded=0;exitX=1;exitY=1;exitDx=0;exitDy=0;strokeColor=#000000;dashed=1;entryX=0.5;entryY=0;entryDx=0;entryDy=0;" parent="wPL9N87I6AKQR9O6h3sn-171" source="wPL9N87I6AKQR9O6h3sn-215" target="wPL9N87I6AKQR9O6h3sn-206" edge="1">
          <mxGeometry width="50" height="50" relative="1" as="geometry">
            <mxPoint x="1260" y="250" as="sourcePoint" />
            <mxPoint x="1320" y="330" as="targetPoint" />
          </mxGeometry>
        </mxCell>
        <mxCell id="wPL9N87I6AKQR9O6h3sn-215" value="&lt;font color=&quot;#6b6b6b&quot; style=&quot;font-size: 50px;&quot;&gt;156&lt;/font&gt;" style="ellipse;whiteSpace=wrap;html=1;aspect=fixed;fontColor=#000000;dashed=1;" parent="wPL9N87I6AKQR9O6h3sn-171" vertex="1">
          <mxGeometry x="1198" y="170" width="110" height="110" as="geometry" />
        </mxCell>
        <mxCell id="wPL9N87I6AKQR9O6h3sn-250" value="&lt;div&gt;&lt;font style=&quot;font-size: 50px;&quot;&gt;IPFS,&amp;nbsp;&lt;/font&gt;&lt;/div&gt;&lt;div&gt;&lt;font style=&quot;font-size: 50px;&quot;&gt;Get 534&lt;/font&gt;&lt;/div&gt;" style="shape=callout;whiteSpace=wrap;html=1;perimeter=calloutPerimeter;position2=0.25;size=440;position=0.1;direction=west;base=16;" parent="1" vertex="1">
          <mxGeometry x="-540" y="2180" width="400" height="580" as="geometry" />
        </mxCell>
        <mxCell id="wPL9N87I6AKQR9O6h3sn-256" value="" style="endArrow=classic;html=1;rounded=0;strokeWidth=10;edgeStyle=orthogonalEdgeStyle;curved=1;entryX=0;entryY=0.5;entryDx=0;entryDy=0;exitX=-0.005;exitY=0.235;exitDx=0;exitDy=0;exitPerimeter=0;" parent="1" source="wPL9N87I6AKQR9O6h3sn-259" target="wPL9N87I6AKQR9O6h3sn-260" edge="1">
          <mxGeometry width="50" height="50" relative="1" as="geometry">
            <mxPoint x="-1520" y="2610" as="sourcePoint" />
            <mxPoint x="-1512" y="3072" as="targetPoint" />
            <Array as="points">
              <mxPoint x="-1660" y="2417" />
              <mxPoint x="-1660" y="2480" />
              <mxPoint x="-1590" y="2480" />
              <mxPoint x="-1590" y="2330" />
              <mxPoint x="-1480" y="2330" />
              <mxPoint x="-1480" y="2380" />
            </Array>
          </mxGeometry>
        </mxCell>
        <mxCell id="wPL9N87I6AKQR9O6h3sn-257" value="&lt;div style=&quot;font-size: 50px;&quot;&gt;&lt;font style=&quot;font-size: 50px;&quot;&gt;Done&lt;br&gt;&lt;/font&gt;&lt;/div&gt;" style="shape=callout;whiteSpace=wrap;html=1;perimeter=calloutPerimeter;size=80;position=0.73;base=19;position2=1;direction=west;" parent="1" vertex="1">
          <mxGeometry x="-1570" y="2340" width="150" height="150" as="geometry" />
        </mxCell>
        <mxCell id="wPL9N87I6AKQR9O6h3sn-259" value="&lt;div&gt;&lt;font style=&quot;font-size: 50px;&quot;&gt;IPFS,&amp;nbsp;&lt;/font&gt;&lt;/div&gt;&lt;div&gt;&lt;font style=&quot;font-size: 50px;&quot;&gt;Get 156&lt;/font&gt;&lt;/div&gt;" style="shape=callout;whiteSpace=wrap;html=1;perimeter=calloutPerimeter;position2=0.57;size=170;position=0.75;direction=west;base=40;" parent="1" vertex="1">
          <mxGeometry x="-2080" y="2180" width="400" height="340" as="geometry" />
        </mxCell>
        <mxCell id="wPL9N87I6AKQR9O6h3sn-268" value="&lt;div&gt;&lt;font style=&quot;font-size: 50px;&quot;&gt;IPFS,&amp;nbsp;&lt;/font&gt;&lt;/div&gt;&lt;div&gt;&lt;font style=&quot;font-size: 50px;&quot;&gt;Get 156&lt;/font&gt;&lt;/div&gt;" style="shape=callout;whiteSpace=wrap;html=1;perimeter=calloutPerimeter;position2=0.57;size=170;position=0.75;direction=west;base=40;" parent="1" vertex="1">
          <mxGeometry x="-530" y="2180" width="400" height="330" as="geometry" />
        </mxCell>
        <mxCell id="wPL9N87I6AKQR9O6h3sn-269" value="" style="endArrow=classic;html=1;rounded=0;strokeWidth=10;edgeStyle=orthogonalEdgeStyle;curved=1;exitX=0.001;exitY=0.209;exitDx=0;exitDy=0;exitPerimeter=0;" parent="1" source="wPL9N87I6AKQR9O6h3sn-268" edge="1">
          <mxGeometry width="50" height="50" relative="1" as="geometry">
            <mxPoint x="-150" y="2440" as="sourcePoint" />
            <mxPoint x="90" y="2380" as="targetPoint" />
            <Array as="points">
              <mxPoint x="-110" y="2441" />
              <mxPoint x="-110" y="2480" />
              <mxPoint x="-80" y="2480" />
              <mxPoint x="-80" y="2330" />
              <mxPoint x="10" y="2330" />
              <mxPoint x="10" y="2380" />
            </Array>
          </mxGeometry>
        </mxCell>
        <mxCell id="wPL9N87I6AKQR9O6h3sn-272" value="" style="edgeStyle=orthogonalEdgeStyle;rounded=0;orthogonalLoop=1;jettySize=auto;html=1;strokeWidth=10;" parent="1" source="wPL9N87I6AKQR9O6h3sn-270" target="wPL9N87I6AKQR9O6h3sn-271" edge="1">
          <mxGeometry relative="1" as="geometry" />
        </mxCell>
        <mxCell id="wPL9N87I6AKQR9O6h3sn-270" value="&lt;div align=&quot;right&quot;&gt;&lt;font color=&quot;#6b6b6b&quot; style=&quot;font-size: 50px;&quot;&gt;Op: updt5&lt;br&gt;&lt;/font&gt;&lt;/div&gt;&lt;div align=&quot;right&quot;&gt;&lt;font color=&quot;#6b6b6b&quot; style=&quot;font-size: 50px;&quot;&gt;Peer: Peer 1&lt;br&gt;&lt;/font&gt;&lt;/div&gt;&lt;div&gt;&lt;font color=&quot;#6b6b6b&quot; style=&quot;font-size: 50px;&quot;&gt;DirectDependency:&amp;nbsp;&lt;/font&gt;&lt;/div&gt;&lt;div&gt;&lt;font color=&quot;#6b6b6b&quot; style=&quot;font-size: 50px;&quot;&gt;{468, 534}&lt;br&gt;&lt;/font&gt;&lt;/div&gt;" style="text;html=1;strokeColor=#6B6B6B;fillColor=default;align=center;verticalAlign=middle;whiteSpace=wrap;rounded=0;" parent="1" vertex="1">
          <mxGeometry x="90" y="2215" width="530" height="260" as="geometry" />
        </mxCell>
        <mxCell id="wPL9N87I6AKQR9O6h3sn-271" value="&lt;div align=&quot;right&quot;&gt;&lt;font color=&quot;#6b6b6b&quot; style=&quot;font-size: 50px;&quot;&gt;I Miss 534&lt;/font&gt;&lt;/div&gt;" style="text;html=1;strokeColor=#6B6B6B;fillColor=default;align=center;verticalAlign=middle;whiteSpace=wrap;rounded=0;" parent="1" vertex="1">
          <mxGeometry x="100" y="2530" width="510" height="60" as="geometry" />
        </mxCell>
        <mxCell id="wPL9N87I6AKQR9O6h3sn-273" value="" style="endArrow=classic;html=1;rounded=0;strokeWidth=10;edgeStyle=orthogonalEdgeStyle;curved=1;exitX=0.001;exitY=0.209;exitDx=0;exitDy=0;exitPerimeter=0;" parent="1" edge="1">
          <mxGeometry width="50" height="50" relative="1" as="geometry">
            <mxPoint x="-140" y="2691" as="sourcePoint" />
            <mxPoint x="90" y="2680" as="targetPoint" />
            <Array as="points">
              <mxPoint x="-120" y="2691" />
              <mxPoint x="-120" y="2540" />
              <mxPoint x="-90" y="2540" />
              <mxPoint x="-90" y="2730" />
              <mxPoint y="2730" />
              <mxPoint y="2680" />
            </Array>
          </mxGeometry>
        </mxCell>
        <mxCell id="wPL9N87I6AKQR9O6h3sn-274" value="&lt;div align=&quot;right&quot;&gt;&lt;font color=&quot;#6b6b6b&quot; style=&quot;font-size: 50px;&quot;&gt;Op: updt4&lt;br&gt;&lt;/font&gt;&lt;/div&gt;&lt;div align=&quot;right&quot;&gt;&lt;font color=&quot;#6b6b6b&quot; style=&quot;font-size: 50px;&quot;&gt;Peer: Peer 3&lt;br&gt;&lt;/font&gt;&lt;/div&gt;&lt;div&gt;&lt;font color=&quot;#6b6b6b&quot; style=&quot;font-size: 50px;&quot;&gt;DirectDependency: {}&lt;br&gt;&lt;/font&gt;&lt;/div&gt;" style="text;html=1;strokeColor=#6B6B6B;fillColor=default;align=center;verticalAlign=middle;whiteSpace=wrap;rounded=0;" parent="1" vertex="1">
          <mxGeometry x="90" y="2610" width="520" height="180" as="geometry" />
        </mxCell>
        <mxCell id="wPL9N87I6AKQR9O6h3sn-276" value="&lt;div style=&quot;font-size: 50px;&quot;&gt;&lt;font style=&quot;font-size: 50px;&quot;&gt;Done&lt;br&gt;&lt;/font&gt;&lt;/div&gt;" style="shape=callout;whiteSpace=wrap;html=1;perimeter=calloutPerimeter;size=80;position=0.73;base=19;position2=1;direction=west;" parent="1" vertex="1">
          <mxGeometry x="-80" y="2390" width="150" height="150" as="geometry" />
        </mxCell>
        <mxCell id="wPL9N87I6AKQR9O6h3sn-277" value="&lt;div style=&quot;font-size: 50px;&quot;&gt;&lt;font style=&quot;font-size: 50px;&quot;&gt;Done&lt;br&gt;&lt;/font&gt;&lt;/div&gt;" style="shape=callout;whiteSpace=wrap;html=1;perimeter=calloutPerimeter;size=80;position=0.73;base=19;position2=1;direction=west;" parent="1" vertex="1">
          <mxGeometry x="-20" y="2720" width="150" height="150" as="geometry" />
        </mxCell>
        <mxCell id="wPL9N87I6AKQR9O6h3sn-281" value="&lt;font style=&quot;font-size: 50px;&quot;&gt;IPFS Network&lt;br&gt;&lt;/font&gt;" style="text;html=1;align=center;verticalAlign=middle;whiteSpace=wrap;rounded=0;fillColor=#FFFFFF;strokeColor=#000000;fontColor=#333333;perimeterSpacing=0;" parent="1" vertex="1">
          <mxGeometry x="-2050" y="740" width="360" height="80" as="geometry" />
        </mxCell>
        <mxCell id="wPL9N87I6AKQR9O6h3sn-285" value="" style="endArrow=classic;html=1;exitX=0;exitY=1;exitDx=0;exitDy=0;entryX=0;entryY=0;entryDx=0;entryDy=0;curved=1;strokeWidth=10;strokeColor=#6B6B6B;" parent="1" source="wPL9N87I6AKQR9O6h3sn-102" target="wPL9N87I6AKQR9O6h3sn-278" edge="1">
          <mxGeometry width="50" height="50" relative="1" as="geometry">
            <mxPoint x="-1200" y="1450" as="sourcePoint" />
            <mxPoint x="-1150" y="1400" as="targetPoint" />
            <Array as="points">
              <mxPoint x="-2430" y="440" />
            </Array>
          </mxGeometry>
        </mxCell>
        <mxCell id="fPi5jzbXd19ijoVux2jO-17" value="" style="endArrow=classic;startArrow=classic;html=1;curved=1;strokeWidth=10;strokeColor=#6B6B6B;" parent="1" source="wPL9N87I6AKQR9O6h3sn-278" edge="1">
          <mxGeometry width="50" height="50" relative="1" as="geometry">
            <mxPoint x="-2120" y="3110" as="sourcePoint" />
            <mxPoint x="-2070" y="3060" as="targetPoint" />
            <Array as="points">
              <mxPoint x="-2540" y="2080" />
            </Array>
          </mxGeometry>
        </mxCell>
        <mxCell id="fPi5jzbXd19ijoVux2jO-22" value="" style="rounded=0;whiteSpace=wrap;html=1;" parent="1" vertex="1">
          <mxGeometry x="-1290" y="4120" width="1280" height="280" as="geometry" />
        </mxCell>
        <mxCell id="fPi5jzbXd19ijoVux2jO-23" value="&lt;div align=&quot;right&quot;&gt;&lt;font color=&quot;#6b6b6b&quot; style=&quot;font-size: 50px;&quot;&gt;Grey&lt;br&gt;&lt;/font&gt;&lt;/div&gt;" style="text;html=1;strokeColor=#6B6B6B;fillColor=default;align=center;verticalAlign=middle;whiteSpace=wrap;rounded=0;" parent="1" vertex="1">
          <mxGeometry x="-1240" y="4300" width="155" height="80" as="geometry" />
        </mxCell>
        <mxCell id="fPi5jzbXd19ijoVux2jO-24" value="&lt;font style=&quot;font-size: 50px;&quot;&gt;Recently Added&lt;br&gt;&lt;/font&gt;" style="text;html=1;strokeColor=none;fillColor=none;align=center;verticalAlign=middle;whiteSpace=wrap;rounded=0;" parent="1" vertex="1">
          <mxGeometry x="-900" y="4300" width="440" height="80" as="geometry" />
        </mxCell>
        <mxCell id="fPi5jzbXd19ijoVux2jO-25" value="&lt;font style=&quot;font-size: 50px;&quot;&gt;Black&lt;/font&gt;" style="text;html=1;strokeColor=#6B6B6B;fillColor=default;align=center;verticalAlign=middle;whiteSpace=wrap;rounded=0;" parent="1" vertex="1">
          <mxGeometry x="-1240" y="4200" width="155" height="80" as="geometry" />
        </mxCell>
        <mxCell id="fPi5jzbXd19ijoVux2jO-26" value="&lt;font style=&quot;font-size: 50px;&quot;&gt;Present at the begining of the update&lt;/font&gt;" style="text;html=1;strokeColor=none;fillColor=none;align=center;verticalAlign=middle;whiteSpace=wrap;rounded=0;" parent="1" vertex="1">
          <mxGeometry x="-900" y="4200" width="885" height="80" as="geometry" />
        </mxCell>
        <mxCell id="fPi5jzbXd19ijoVux2jO-27" value="&lt;b&gt;&lt;u&gt;&lt;font style=&quot;font-size: 50px;&quot;&gt;Legend :&lt;br&gt;&lt;/font&gt;&lt;/u&gt;&lt;/b&gt;" style="text;html=1;strokeColor=none;fillColor=none;align=center;verticalAlign=middle;whiteSpace=wrap;rounded=0;" parent="1" vertex="1">
          <mxGeometry x="-1092.5" y="4130" width="885" height="90" as="geometry" />
        </mxCell>
        <mxCell id="fPi5jzbXd19ijoVux2jO-30" value="&lt;font color=&quot;#6b6b6b&quot; style=&quot;font-size: 50px;&quot;&gt;F5.json&lt;/font&gt;" style="text;html=1;strokeColor=default;fillColor=none;align=center;verticalAlign=middle;whiteSpace=wrap;rounded=0;" parent="1" vertex="1">
          <mxGeometry x="-425" y="320" width="170" height="60" as="geometry" />
        </mxCell>
        <mxCell id="fPi5jzbXd19ijoVux2jO-31" value="&lt;div align=&quot;right&quot;&gt;&lt;font color=&quot;#6b6b6b&quot; style=&quot;font-size: 50px;&quot;&gt;Op: updt5&lt;br&gt;&lt;/font&gt;&lt;/div&gt;&lt;div align=&quot;right&quot;&gt;&lt;font color=&quot;#6b6b6b&quot; style=&quot;font-size: 50px;&quot;&gt;Peer: Peer 1&lt;br&gt;&lt;/font&gt;&lt;/div&gt;&lt;div&gt;&lt;font color=&quot;#6b6b6b&quot; style=&quot;font-size: 50px;&quot;&gt;DirectDependency:&lt;/font&gt;&lt;/div&gt;&lt;div&gt;&lt;font color=&quot;#6b6b6b&quot; style=&quot;font-size: 50px;&quot;&gt;{468, 534}&lt;br&gt;&lt;/font&gt;&lt;/div&gt;" style="text;html=1;strokeColor=default;fillColor=none;align=center;verticalAlign=middle;whiteSpace=wrap;rounded=0;dashed=1;" parent="1" vertex="1">
          <mxGeometry x="-2050" y="1030" width="460" height="250" as="geometry" />
        </mxCell>
        <mxCell id="fPi5jzbXd19ijoVux2jO-32" value="&lt;div align=&quot;right&quot;&gt;&lt;font color=&quot;#6b6b6b&quot; style=&quot;font-size: 50px;&quot;&gt;Op: updt4&lt;br&gt;&lt;/font&gt;&lt;/div&gt;&lt;div align=&quot;right&quot;&gt;&lt;font color=&quot;#6b6b6b&quot; style=&quot;font-size: 50px;&quot;&gt;Peer: Peer 3&lt;br&gt;&lt;/font&gt;&lt;/div&gt;&lt;div&gt;&lt;font color=&quot;#6b6b6b&quot; style=&quot;font-size: 50px;&quot;&gt;DirectDependency: {}&lt;br&gt;&lt;/font&gt;&lt;/div&gt;" style="text;html=1;strokeColor=default;fillColor=none;align=center;verticalAlign=middle;whiteSpace=wrap;rounded=0;dashed=1;" parent="1" vertex="1">
          <mxGeometry x="-2050" y="1380" width="460" height="234" as="geometry" />
        </mxCell>
        <mxCell id="wPL9N87I6AKQR9O6h3sn-278" value="&lt;font color=&quot;#6b6b6b&quot; style=&quot;font-size: 50px;&quot;&gt;156&lt;/font&gt;" style="ellipse;whiteSpace=wrap;html=1;aspect=fixed;" parent="1" vertex="1">
          <mxGeometry x="-2070" y="1000" width="130" height="130" as="geometry" />
        </mxCell>
        <mxCell id="fPi5jzbXd19ijoVux2jO-33" value="" style="rounded=0;whiteSpace=wrap;html=1;strokeColor=none;" parent="1" vertex="1">
          <mxGeometry x="-2100" y="1370" width="120" height="60" as="geometry" />
        </mxCell>
        <mxCell id="wPL9N87I6AKQR9O6h3sn-279" value="&lt;font style=&quot;font-size: 50px;&quot;&gt;534&lt;/font&gt;" style="ellipse;whiteSpace=wrap;html=1;aspect=fixed;" parent="1" vertex="1">
          <mxGeometry x="-2060" y="1370" width="130" height="130" as="geometry" />
        </mxCell>
        <mxCell id="fPi5jzbXd19ijoVux2jO-21" value="" style="endArrow=classic;startArrow=classic;html=1;curved=1;strokeWidth=10;strokeColor=#6B6B6B;entryX=0;entryY=0;entryDx=400;entryDy=70;entryPerimeter=0;exitX=0;exitY=0.5;exitDx=0;exitDy=0;" parent="1" source="wPL9N87I6AKQR9O6h3sn-279" target="wPL9N87I6AKQR9O6h3sn-250" edge="1">
          <mxGeometry width="50" height="50" relative="1" as="geometry">
            <mxPoint x="-2620" y="1690" as="sourcePoint" />
            <mxPoint x="-461" y="3026" as="targetPoint" />
            <Array as="points">
              <mxPoint x="-2450" y="1380" />
              <mxPoint x="-2060" y="2040" />
              <mxPoint x="-1250" y="2440" />
              <mxPoint x="-660" y="2910" />
            </Array>
          </mxGeometry>
        </mxCell>
        <mxCell id="wPL9N87I6AKQR9O6h3sn-119" value="&lt;font style=&quot;font-size: 50px;&quot;&gt;Peer 3&lt;br&gt;&lt;/font&gt;" style="swimlane;whiteSpace=wrap;html=1;startSize=70;separatorColor=none;glass=0;" parent="1" vertex="1">
          <mxGeometry x="-2180" y="2990" width="1500" height="880" as="geometry" />
        </mxCell>
        <mxCell id="wPL9N87I6AKQR9O6h3sn-120" value="" style="rounded=0;whiteSpace=wrap;html=1;" parent="wPL9N87I6AKQR9O6h3sn-119" vertex="1">
          <mxGeometry y="70" width="1500" height="810" as="geometry" />
        </mxCell>
        <mxCell id="wPL9N87I6AKQR9O6h3sn-121" value="" style="edgeStyle=orthogonalEdgeStyle;rounded=0;orthogonalLoop=1;jettySize=auto;html=1;" parent="wPL9N87I6AKQR9O6h3sn-119" edge="1">
          <mxGeometry relative="1" as="geometry">
            <mxPoint x="640.0476190476188" y="260" as="sourcePoint" />
            <mxPoint x="640.0476190476188" y="260" as="targetPoint" />
          </mxGeometry>
        </mxCell>
        <mxCell id="wPL9N87I6AKQR9O6h3sn-125" value="" style="shape=note;whiteSpace=wrap;html=1;backgroundOutline=1;darkOpacity=0.05;size=23;" parent="wPL9N87I6AKQR9O6h3sn-119" vertex="1">
          <mxGeometry x="380" y="90" width="520" height="180" as="geometry" />
        </mxCell>
        <mxCell id="wPL9N87I6AKQR9O6h3sn-126" value="" style="shape=note;whiteSpace=wrap;html=1;backgroundOutline=1;darkOpacity=0.05;" parent="wPL9N87I6AKQR9O6h3sn-119" vertex="1">
          <mxGeometry x="380" y="270" width="520" height="250" as="geometry" />
        </mxCell>
        <mxCell id="wPL9N87I6AKQR9O6h3sn-127" value="" style="shape=internalStorage;whiteSpace=wrap;html=1;backgroundOutline=1;dx=120;dy=100;" parent="wPL9N87I6AKQR9O6h3sn-119" vertex="1">
          <mxGeometry x="20" y="90" width="330" height="590" as="geometry" />
        </mxCell>
        <mxCell id="wPL9N87I6AKQR9O6h3sn-128" value="&lt;div&gt;&lt;font style=&quot;font-size: 50px;&quot;&gt;CID&lt;/font&gt;&lt;/div&gt;" style="text;html=1;strokeColor=none;fillColor=none;align=center;verticalAlign=middle;whiteSpace=wrap;rounded=0;" parent="wPL9N87I6AKQR9O6h3sn-119" vertex="1">
          <mxGeometry x="20" y="90" width="120" height="100" as="geometry" />
        </mxCell>
        <mxCell id="wPL9N87I6AKQR9O6h3sn-129" value="&lt;font style=&quot;font-size: 50px;&quot;&gt;FILE&lt;/font&gt;" style="text;html=1;strokeColor=none;fillColor=none;align=center;verticalAlign=middle;whiteSpace=wrap;rounded=0;" parent="wPL9N87I6AKQR9O6h3sn-119" vertex="1">
          <mxGeometry x="140" y="90" width="210" height="100" as="geometry" />
        </mxCell>
        <mxCell id="wPL9N87I6AKQR9O6h3sn-130" value="" style="endArrow=none;html=1;rounded=0;exitX=0;exitY=0.163;exitDx=0;exitDy=0;entryX=1;entryY=0.163;entryDx=0;entryDy=0;entryPerimeter=0;exitPerimeter=0;" parent="wPL9N87I6AKQR9O6h3sn-119" edge="1">
          <mxGeometry width="50" height="50" relative="1" as="geometry">
            <mxPoint x="20" y="290.00000000000006" as="sourcePoint" />
            <mxPoint x="350" y="290.00000000000006" as="targetPoint" />
          </mxGeometry>
        </mxCell>
        <mxCell id="wPL9N87I6AKQR9O6h3sn-131" value="&lt;font style=&quot;font-size: 50px;&quot;&gt;982&lt;/font&gt;" style="text;html=1;strokeColor=none;fillColor=none;align=center;verticalAlign=middle;whiteSpace=wrap;rounded=0;" parent="wPL9N87I6AKQR9O6h3sn-119" vertex="1">
          <mxGeometry x="20" y="190" width="120" height="100" as="geometry" />
        </mxCell>
        <mxCell id="wPL9N87I6AKQR9O6h3sn-132" value="&lt;font style=&quot;font-size: 50px;&quot;&gt;F1.json&lt;/font&gt;" style="text;html=1;strokeColor=none;fillColor=none;align=center;verticalAlign=middle;whiteSpace=wrap;rounded=0;" parent="wPL9N87I6AKQR9O6h3sn-119" vertex="1">
          <mxGeometry x="140" y="190" width="210" height="100" as="geometry" />
        </mxCell>
        <mxCell id="wPL9N87I6AKQR9O6h3sn-133" value="&lt;font style=&quot;font-size: 50px;&quot;&gt;F2.json&lt;/font&gt;" style="text;html=1;strokeColor=none;fillColor=none;align=center;verticalAlign=middle;whiteSpace=wrap;rounded=0;" parent="wPL9N87I6AKQR9O6h3sn-119" vertex="1">
          <mxGeometry x="140" y="290" width="210" height="100" as="geometry" />
        </mxCell>
        <mxCell id="wPL9N87I6AKQR9O6h3sn-134" value="&lt;font style=&quot;font-size: 50px;&quot;&gt;794&lt;/font&gt;" style="text;html=1;strokeColor=none;fillColor=none;align=center;verticalAlign=middle;whiteSpace=wrap;rounded=0;" parent="wPL9N87I6AKQR9O6h3sn-119" vertex="1">
          <mxGeometry x="20" y="290" width="120" height="100" as="geometry" />
        </mxCell>
        <mxCell id="wPL9N87I6AKQR9O6h3sn-135" value="" style="endArrow=none;html=1;rounded=0;exitX=0;exitY=0.163;exitDx=0;exitDy=0;entryX=1;entryY=0.163;entryDx=0;entryDy=0;entryPerimeter=0;exitPerimeter=0;" parent="wPL9N87I6AKQR9O6h3sn-119" edge="1">
          <mxGeometry width="50" height="50" relative="1" as="geometry">
            <mxPoint x="20" y="390" as="sourcePoint" />
            <mxPoint x="350" y="390" as="targetPoint" />
          </mxGeometry>
        </mxCell>
        <mxCell id="wPL9N87I6AKQR9O6h3sn-136" value="&lt;font style=&quot;font-size: 50px;&quot;&gt;F3.json&lt;/font&gt;" style="text;html=1;strokeColor=none;fillColor=none;align=center;verticalAlign=middle;whiteSpace=wrap;rounded=0;" parent="wPL9N87I6AKQR9O6h3sn-119" vertex="1">
          <mxGeometry x="140" y="390" width="210" height="100" as="geometry" />
        </mxCell>
        <mxCell id="wPL9N87I6AKQR9O6h3sn-137" value="&lt;div&gt;&lt;font style=&quot;font-size: 50px;&quot;&gt;468&lt;/font&gt;&lt;/div&gt;" style="text;html=1;strokeColor=none;fillColor=none;align=center;verticalAlign=middle;whiteSpace=wrap;rounded=0;" parent="wPL9N87I6AKQR9O6h3sn-119" vertex="1">
          <mxGeometry x="20" y="390" width="120" height="100" as="geometry" />
        </mxCell>
        <mxCell id="wPL9N87I6AKQR9O6h3sn-138" value="" style="endArrow=none;html=1;rounded=0;exitX=0;exitY=1;exitDx=0;exitDy=0;entryX=1;entryY=0;entryDx=0;entryDy=0;" parent="wPL9N87I6AKQR9O6h3sn-119" source="wPL9N87I6AKQR9O6h3sn-137" target="wPL9N87I6AKQR9O6h3sn-139" edge="1">
          <mxGeometry width="50" height="50" relative="1" as="geometry">
            <mxPoint x="30" y="490" as="sourcePoint" />
            <mxPoint x="360" y="490" as="targetPoint" />
          </mxGeometry>
        </mxCell>
        <mxCell id="wPL9N87I6AKQR9O6h3sn-139" value="&lt;font style=&quot;font-size: 50px;&quot;&gt;F4.json&lt;/font&gt;" style="text;html=1;strokeColor=none;fillColor=none;align=center;verticalAlign=middle;whiteSpace=wrap;rounded=0;" parent="wPL9N87I6AKQR9O6h3sn-119" vertex="1">
          <mxGeometry x="140" y="490" width="210" height="100" as="geometry" />
        </mxCell>
        <mxCell id="wPL9N87I6AKQR9O6h3sn-140" value="&lt;font style=&quot;font-size: 50px;&quot;&gt;534&lt;/font&gt;" style="text;html=1;strokeColor=none;fillColor=none;align=center;verticalAlign=middle;whiteSpace=wrap;rounded=0;" parent="wPL9N87I6AKQR9O6h3sn-119" vertex="1">
          <mxGeometry x="20" y="490" width="120" height="100" as="geometry" />
        </mxCell>
        <mxCell id="wPL9N87I6AKQR9O6h3sn-141" value="" style="endArrow=none;html=1;rounded=0;exitX=0;exitY=0.163;exitDx=0;exitDy=0;entryX=1;entryY=0.163;entryDx=0;entryDy=0;entryPerimeter=0;exitPerimeter=0;" parent="wPL9N87I6AKQR9O6h3sn-119" edge="1">
          <mxGeometry width="50" height="50" relative="1" as="geometry">
            <mxPoint x="20" y="590" as="sourcePoint" />
            <mxPoint x="350" y="590" as="targetPoint" />
          </mxGeometry>
        </mxCell>
        <mxCell id="wPL9N87I6AKQR9O6h3sn-142" value="&lt;font color=&quot;#6b6b6b&quot; style=&quot;font-size: 50px;&quot;&gt;F5.json&lt;/font&gt;" style="text;html=1;strokeColor=none;fillColor=none;align=center;verticalAlign=middle;whiteSpace=wrap;rounded=0;" parent="wPL9N87I6AKQR9O6h3sn-119" vertex="1">
          <mxGeometry x="140" y="590" width="210" height="100" as="geometry" />
        </mxCell>
        <mxCell id="wPL9N87I6AKQR9O6h3sn-143" value="&lt;font color=&quot;#6b6b6b&quot; style=&quot;font-size: 50px;&quot;&gt;156&lt;/font&gt;" style="text;html=1;strokeColor=none;fillColor=none;align=center;verticalAlign=middle;whiteSpace=wrap;rounded=0;" parent="wPL9N87I6AKQR9O6h3sn-119" vertex="1">
          <mxGeometry x="20" y="590" width="120" height="100" as="geometry" />
        </mxCell>
        <mxCell id="wPL9N87I6AKQR9O6h3sn-150" value="&lt;font style=&quot;font-size: 50px;&quot;&gt;F4.json&lt;/font&gt;" style="text;html=1;strokeColor=default;fillColor=none;align=center;verticalAlign=middle;whiteSpace=wrap;rounded=0;" parent="wPL9N87I6AKQR9O6h3sn-119" vertex="1">
          <mxGeometry x="380" y="90" width="170" height="60" as="geometry" />
        </mxCell>
        <mxCell id="wPL9N87I6AKQR9O6h3sn-151" value="&lt;font color=&quot;#6b6b6b&quot; style=&quot;font-size: 50px;&quot;&gt;F5.json&lt;/font&gt;" style="text;html=1;strokeColor=default;fillColor=none;align=center;verticalAlign=middle;whiteSpace=wrap;rounded=0;" parent="wPL9N87I6AKQR9O6h3sn-119" vertex="1">
          <mxGeometry x="380" y="270" width="170" height="60" as="geometry" />
        </mxCell>
        <mxCell id="wPL9N87I6AKQR9O6h3sn-152" value="&lt;div align=&quot;right&quot;&gt;&lt;font color=&quot;#6b6b6b&quot; style=&quot;font-size: 50px;&quot;&gt;Op: updt5&lt;br&gt;&lt;/font&gt;&lt;/div&gt;&lt;div align=&quot;right&quot;&gt;&lt;font color=&quot;#6b6b6b&quot; style=&quot;font-size: 50px;&quot;&gt;Peer: Peer 1&lt;br&gt;&lt;/font&gt;&lt;/div&gt;&lt;div&gt;&lt;font color=&quot;#6b6b6b&quot; style=&quot;font-size: 50px;&quot;&gt;DirectDependency:&lt;/font&gt;&lt;/div&gt;&lt;div&gt;&lt;font color=&quot;#6b6b6b&quot; style=&quot;font-size: 50px;&quot;&gt;{468, 534}&lt;br&gt;&lt;/font&gt;&lt;/div&gt;" style="text;html=1;strokeColor=none;fillColor=none;align=center;verticalAlign=middle;whiteSpace=wrap;rounded=0;" parent="wPL9N87I6AKQR9O6h3sn-119" vertex="1">
          <mxGeometry x="380" y="270" width="520" height="250" as="geometry" />
        </mxCell>
        <mxCell id="wPL9N87I6AKQR9O6h3sn-153" value="&lt;div align=&quot;left&quot;&gt;&lt;br&gt;&lt;/div&gt;" style="rounded=1;whiteSpace=wrap;html=1;" parent="wPL9N87I6AKQR9O6h3sn-119" vertex="1">
          <mxGeometry x="910" y="160" width="570" height="440" as="geometry" />
        </mxCell>
        <mxCell id="wPL9N87I6AKQR9O6h3sn-154" value="&lt;font style=&quot;font-size: 50px;&quot; color=&quot;#0000cc&quot;&gt;534&lt;/font&gt;" style="ellipse;whiteSpace=wrap;html=1;aspect=fixed;strokeColor=#0000CC;" parent="wPL9N87I6AKQR9O6h3sn-119" vertex="1">
          <mxGeometry x="1308" y="327.5" width="107.5" height="107.5" as="geometry" />
        </mxCell>
        <mxCell id="wPL9N87I6AKQR9O6h3sn-155" value="&lt;font style=&quot;font-size: 50px;&quot; color=&quot;#0000cc&quot;&gt;468&lt;/font&gt;" style="ellipse;whiteSpace=wrap;html=1;aspect=fixed;fontColor=#000000;strokeColor=#0000CC;direction=south;" parent="wPL9N87I6AKQR9O6h3sn-119" vertex="1">
          <mxGeometry x="1070" y="325" width="110" height="110" as="geometry" />
        </mxCell>
        <mxCell id="wPL9N87I6AKQR9O6h3sn-156" value="" style="endArrow=classic;html=1;rounded=0;strokeColor=#0000CC;exitX=1;exitY=1;exitDx=0;exitDy=0;entryX=0.5;entryY=0;entryDx=0;entryDy=0;" parent="wPL9N87I6AKQR9O6h3sn-119" source="wPL9N87I6AKQR9O6h3sn-155" target="wPL9N87I6AKQR9O6h3sn-158" edge="1">
          <mxGeometry width="50" height="50" relative="1" as="geometry">
            <mxPoint x="1080" y="440" as="sourcePoint" />
            <mxPoint x="1040" y="490" as="targetPoint" />
          </mxGeometry>
        </mxCell>
        <mxCell id="wPL9N87I6AKQR9O6h3sn-157" value="" style="endArrow=classic;html=1;rounded=0;strokeColor=#0000CC;entryX=0.261;entryY=0.072;entryDx=0;entryDy=0;entryPerimeter=0;" parent="wPL9N87I6AKQR9O6h3sn-119" source="wPL9N87I6AKQR9O6h3sn-155" target="wPL9N87I6AKQR9O6h3sn-159" edge="1">
          <mxGeometry width="50" height="50" relative="1" as="geometry">
            <mxPoint x="1103" y="420" as="sourcePoint" />
            <mxPoint x="1223" y="520" as="targetPoint" />
          </mxGeometry>
        </mxCell>
        <mxCell id="wPL9N87I6AKQR9O6h3sn-158" value="&lt;font style=&quot;font-size: 50px;&quot; color=&quot;#0000cc&quot;&gt;982&lt;/font&gt;" style="ellipse;whiteSpace=wrap;html=1;aspect=fixed;strokeColor=#0000CC;" parent="wPL9N87I6AKQR9O6h3sn-119" vertex="1">
          <mxGeometry x="950" y="480" width="115" height="115" as="geometry" />
        </mxCell>
        <mxCell id="wPL9N87I6AKQR9O6h3sn-159" value="&lt;font style=&quot;font-size: 50px;&quot; color=&quot;#0000cc&quot;&gt;794&lt;/font&gt;" style="ellipse;whiteSpace=wrap;html=1;aspect=fixed;fontColor=#000000;strokeColor=#0000CC;" parent="wPL9N87I6AKQR9O6h3sn-119" vertex="1">
          <mxGeometry x="1193" y="475" width="115" height="115" as="geometry" />
        </mxCell>
        <mxCell id="wPL9N87I6AKQR9O6h3sn-162" value="&lt;font style=&quot;font-size: 50px;&quot;&gt;Merkle-DAG&lt;/font&gt;" style="text;html=1;align=center;verticalAlign=middle;whiteSpace=wrap;rounded=0;fillColor=#FFFFFF;strokeColor=#000000;fontColor=#333333;perimeterSpacing=0;" parent="wPL9N87I6AKQR9O6h3sn-119" vertex="1">
          <mxGeometry x="1050" y="80" width="290" height="70" as="geometry" />
        </mxCell>
        <mxCell id="wPL9N87I6AKQR9O6h3sn-164" value="&lt;div align=&quot;right&quot;&gt;&lt;font style=&quot;font-size: 50px;&quot;&gt;Op: updt4&lt;br&gt;&lt;/font&gt;&lt;/div&gt;&lt;div align=&quot;right&quot;&gt;&lt;font style=&quot;font-size: 50px;&quot;&gt;Peer: Peer 3&lt;br&gt;&lt;/font&gt;&lt;/div&gt;&lt;div&gt;&lt;font style=&quot;font-size: 50px;&quot;&gt;DirectDependency: {}&lt;br&gt;&lt;/font&gt;&lt;/div&gt;" style="text;html=1;strokeColor=none;fillColor=none;align=center;verticalAlign=middle;whiteSpace=wrap;rounded=0;" parent="wPL9N87I6AKQR9O6h3sn-119" vertex="1">
          <mxGeometry x="380" y="90" width="520" height="180" as="geometry" />
        </mxCell>
        <mxCell id="fPi5jzbXd19ijoVux2jO-3" value="&lt;font style=&quot;font-size: 50px;&quot;&gt;RootNodes: {468, 534}&lt;br&gt;&lt;/font&gt;" style="text;html=1;strokeColor=default;fillColor=none;align=center;verticalAlign=middle;whiteSpace=wrap;rounded=0;" parent="wPL9N87I6AKQR9O6h3sn-119" vertex="1">
          <mxGeometry x="930" y="610" width="520" height="80" as="geometry" />
        </mxCell>
        <mxCell id="fPi5jzbXd19ijoVux2jO-4" value="" style="shape=flexArrow;endArrow=classic;html=1;rounded=0;exitX=0.5;exitY=1;exitDx=0;exitDy=0;endWidth=44.21052631578947;endSize=14.23157894736842;width=25.263157894736842;dashed=1;" parent="wPL9N87I6AKQR9O6h3sn-119" edge="1">
          <mxGeometry width="50" height="50" relative="1" as="geometry">
            <mxPoint x="1189.5" y="690" as="sourcePoint" />
            <mxPoint x="1189.68" y="790" as="targetPoint" />
          </mxGeometry>
        </mxCell>
        <mxCell id="fPi5jzbXd19ijoVux2jO-5" value="&lt;div&gt;&lt;font color=&quot;#6b6b6b&quot; style=&quot;font-size: 50px;&quot;&gt;RootNodes: {156}&lt;/font&gt;&lt;/div&gt;" style="text;html=1;strokeColor=default;fillColor=none;align=center;verticalAlign=middle;whiteSpace=wrap;rounded=0;dashed=1;" parent="wPL9N87I6AKQR9O6h3sn-119" vertex="1">
          <mxGeometry x="930" y="790" width="520" height="80" as="geometry" />
        </mxCell>
        <mxCell id="1cgQZR3NjWRQ5NGcXOkT-52" value="&lt;font color=&quot;#990000&quot; style=&quot;font-size: 50px;&quot;&gt;Step 4&lt;/font&gt;&lt;font color=&quot;#990000&quot;&gt;&amp;nbsp;&amp;nbsp;&amp;nbsp;&amp;nbsp;&amp;nbsp;&amp;nbsp;&amp;nbsp;&amp;nbsp;&amp;nbsp;&amp;nbsp;&amp;nbsp;&amp;nbsp;&amp;nbsp;&amp;nbsp;&amp;nbsp;&amp;nbsp;&amp;nbsp;&amp;nbsp;&amp;nbsp;&amp;nbsp;&amp;nbsp;&amp;nbsp;&amp;nbsp;&amp;nbsp;&amp;nbsp;&amp;nbsp;&amp;nbsp;&amp;nbsp;&amp;nbsp;&amp;nbsp;&amp;nbsp;&amp;nbsp;&amp;nbsp;&amp;nbsp;&amp;nbsp;&amp;nbsp;&amp;nbsp;&amp;nbsp;&amp;nbsp;&amp;nbsp;&amp;nbsp;&amp;nbsp;&amp;nbsp;&amp;nbsp;&amp;nbsp;&amp;nbsp;&amp;nbsp; &lt;/font&gt;" style="shape=hexagon;perimeter=hexagonPerimeter2;whiteSpace=wrap;html=1;fixedSize=1;size=180;fillColor=#FFEBEB;" parent="wPL9N87I6AKQR9O6h3sn-119" vertex="1">
          <mxGeometry x="940" y="160" width="490.5" height="140" as="geometry" />
        </mxCell>
        <mxCell id="wPL9N87I6AKQR9O6h3sn-163" value="&lt;font color=&quot;#6b6b6b&quot; style=&quot;font-size: 50px;&quot;&gt;156&lt;/font&gt;" style="ellipse;whiteSpace=wrap;html=1;aspect=fixed;fontColor=#000000;dashed=1;" parent="wPL9N87I6AKQR9O6h3sn-119" vertex="1">
          <mxGeometry x="1198" y="170" width="110" height="110" as="geometry" />
        </mxCell>
        <mxCell id="wPL9N87I6AKQR9O6h3sn-161" value="" style="endArrow=classic;html=1;rounded=0;strokeColor=#000000;dashed=1;entryX=0;entryY=0.5;entryDx=0;entryDy=0;exitX=0;exitY=1;exitDx=0;exitDy=0;" parent="wPL9N87I6AKQR9O6h3sn-119" source="wPL9N87I6AKQR9O6h3sn-163" target="wPL9N87I6AKQR9O6h3sn-155" edge="1">
          <mxGeometry width="50" height="50" relative="1" as="geometry">
            <mxPoint x="1810" y="410" as="sourcePoint" />
            <mxPoint x="1380" y="350" as="targetPoint" />
          </mxGeometry>
        </mxCell>
        <mxCell id="wPL9N87I6AKQR9O6h3sn-160" value="" style="endArrow=classic;html=1;rounded=0;exitX=1;exitY=1;exitDx=0;exitDy=0;strokeColor=#000000;dashed=1;entryX=0.5;entryY=0;entryDx=0;entryDy=0;" parent="wPL9N87I6AKQR9O6h3sn-119" source="wPL9N87I6AKQR9O6h3sn-163" target="wPL9N87I6AKQR9O6h3sn-154" edge="1">
          <mxGeometry width="50" height="50" relative="1" as="geometry">
            <mxPoint x="1260" y="250" as="sourcePoint" />
            <mxPoint x="1320" y="330" as="targetPoint" />
          </mxGeometry>
        </mxCell>
        <mxCell id="wPL9N87I6AKQR9O6h3sn-260" value="&lt;div align=&quot;right&quot;&gt;&lt;font color=&quot;#6b6b6b&quot; style=&quot;font-size: 50px;&quot;&gt;Op: updt5&lt;br&gt;&lt;/font&gt;&lt;/div&gt;&lt;div align=&quot;right&quot;&gt;&lt;font color=&quot;#6b6b6b&quot; style=&quot;font-size: 50px;&quot;&gt;Peer: Peer 1&lt;br&gt;&lt;/font&gt;&lt;/div&gt;&lt;div&gt;&lt;font color=&quot;#6b6b6b&quot; style=&quot;font-size: 50px;&quot;&gt;DirectDependency:&amp;nbsp;&lt;/font&gt;&lt;/div&gt;&lt;div&gt;&lt;font color=&quot;#6b6b6b&quot; style=&quot;font-size: 50px;&quot;&gt;{468, 534}&lt;br&gt;&lt;/font&gt;&lt;/div&gt;" style="text;html=1;strokeColor=#6B6B6B;fillColor=default;align=center;verticalAlign=middle;whiteSpace=wrap;rounded=0;" parent="1" vertex="1">
          <mxGeometry x="-1390" y="2250" width="530" height="260" as="geometry" />
        </mxCell>
        <mxCell id="fPi5jzbXd19ijoVux2jO-34" value="" style="endArrow=none;html=1;rounded=0;" parent="1" edge="1">
          <mxGeometry width="50" height="50" relative="1" as="geometry">
            <mxPoint x="-1080" y="4291" as="sourcePoint" />
            <mxPoint x="-1053" y="4197" as="targetPoint" />
          </mxGeometry>
        </mxCell>
        <mxCell id="fPi5jzbXd19ijoVux2jO-35" value="&lt;font style=&quot;font-size: 50px;&quot; color=&quot;#0000cc&quot;&gt;Blue&lt;/font&gt;" style="ellipse;whiteSpace=wrap;html=1;strokeColor=#0000CC;" parent="1" vertex="1">
          <mxGeometry x="-1048" y="4185" width="115" height="115" as="geometry" />
        </mxCell>
        <mxCell id="fPi5jzbXd19ijoVux2jO-37" value="" style="endArrow=none;html=1;rounded=0;strokeWidth=3;" parent="1" edge="1">
          <mxGeometry width="50" height="50" relative="1" as="geometry">
            <mxPoint x="-904" y="4239.969999999999" as="sourcePoint" />
            <mxPoint x="-890" y="4239.969999999999" as="targetPoint" />
          </mxGeometry>
        </mxCell>
        <mxCell id="fPi5jzbXd19ijoVux2jO-38" value="" style="endArrow=none;html=1;rounded=0;strokeWidth=3;" parent="1" edge="1">
          <mxGeometry width="50" height="50" relative="1" as="geometry">
            <mxPoint x="-904" y="4339.91" as="sourcePoint" />
            <mxPoint x="-890" y="4339.91" as="targetPoint" />
          </mxGeometry>
        </mxCell>
        <mxCell id="HDF9foMfLyrXzTbLnonI-9" value="" style="rounded=0;whiteSpace=wrap;html=1;" vertex="1" parent="1">
          <mxGeometry x="-615" y="1840" width="1425" height="330" as="geometry" />
        </mxCell>
        <mxCell id="HDF9foMfLyrXzTbLnonI-2" value="" style="shape=image;verticalLabelPosition=bottom;labelBackgroundColor=default;verticalAlign=top;aspect=fixed;imageAspect=0;image=https://cdn-icons-png.flaticon.com/512/32/32527.png;" vertex="1" parent="1">
          <mxGeometry x="-540" y="1894.5" width="221" height="221" as="geometry" />
        </mxCell>
        <mxCell id="HDF9foMfLyrXzTbLnonI-10" value="&lt;font style=&quot;font-size: 56px;&quot;&gt;Remote Folder&lt;br&gt;&lt;/font&gt;" style="text;html=1;align=center;verticalAlign=middle;resizable=0;points=[];autosize=1;strokeColor=none;fillColor=none;" vertex="1" parent="1">
          <mxGeometry x="-550" y="1865" width="390" height="80" as="geometry" />
        </mxCell>
        <mxCell id="HDF9foMfLyrXzTbLnonI-13" value="" style="rounded=0;whiteSpace=wrap;html=1;" vertex="1" parent="1">
          <mxGeometry x="-2155" y="1840" width="1490" height="330" as="geometry" />
        </mxCell>
        <mxCell id="HDF9foMfLyrXzTbLnonI-14" value="" style="shape=image;verticalLabelPosition=bottom;labelBackgroundColor=default;verticalAlign=top;aspect=fixed;imageAspect=0;image=https://cdn-icons-png.flaticon.com/512/32/32527.png;" vertex="1" parent="1">
          <mxGeometry x="-2080" y="1894.5" width="221" height="221" as="geometry" />
        </mxCell>
        <mxCell id="HDF9foMfLyrXzTbLnonI-15" value="&lt;font style=&quot;font-size: 56px;&quot;&gt;Remote Folder&lt;br&gt;&lt;/font&gt;" style="text;html=1;align=center;verticalAlign=middle;resizable=0;points=[];autosize=1;strokeColor=none;fillColor=none;" vertex="1" parent="1">
          <mxGeometry x="-2085" y="1865" width="390" height="80" as="geometry" />
        </mxCell>
        <mxCell id="HDF9foMfLyrXzTbLnonI-16" value="" style="shape=note;whiteSpace=wrap;html=1;backgroundOutline=1;darkOpacity=0.05;fillColor=#f5f5f5;fontColor=#333333;strokeColor=#666666;" vertex="1" parent="1">
          <mxGeometry x="-1395" y="1911" width="240" height="230" as="geometry" />
        </mxCell>
        <mxCell id="HDF9foMfLyrXzTbLnonI-17" value="&lt;div style=&quot;font-size: 52px;&quot;&gt;&lt;font style=&quot;font-size: 52px;&quot;&gt;CID : 156&lt;/font&gt;&lt;/div&gt;" style="text;html=1;align=center;verticalAlign=middle;resizable=0;points=[];autosize=1;strokeColor=none;fillColor=none;" vertex="1" parent="1">
          <mxGeometry x="-1395" y="1980" width="240" height="80" as="geometry" />
        </mxCell>
        <mxCell id="HDF9foMfLyrXzTbLnonI-18" value="" style="html=1;shadow=0;dashed=0;align=center;verticalAlign=middle;shape=mxgraph.arrows2.uTurnArrow;dy=25;arrowHead=110;dx2=152.5;fillColor=#ffe6cc;strokeColor=#d79b00;" vertex="1" parent="1">
          <mxGeometry x="-2240" y="2045" width="390" height="600" as="geometry" />
        </mxCell>
        <mxCell id="HDF9foMfLyrXzTbLnonI-20" value="" style="html=1;shadow=0;dashed=0;align=center;verticalAlign=middle;shape=mxgraph.arrows2.uTurnArrow;dy=27.5;arrowHead=110;dx2=178.75;fillColor=#ffe6cc;strokeColor=#d79b00;rotation=-180;" vertex="1" parent="1">
          <mxGeometry x="-1150" y="2060" width="450" height="610" as="geometry" />
        </mxCell>
        <mxCell id="HDF9foMfLyrXzTbLnonI-22" value="" style="rounded=0;whiteSpace=wrap;html=1;" vertex="1" parent="1">
          <mxGeometry x="-2400" y="2139.5" width="400" height="110" as="geometry" />
        </mxCell>
        <mxCell id="HDF9foMfLyrXzTbLnonI-21" value="&lt;font style=&quot;font-size: 56px;&quot;&gt;WaitTime&lt;/font&gt;" style="text;html=1;align=center;verticalAlign=middle;resizable=0;points=[];autosize=1;" vertex="1" parent="1">
          <mxGeometry x="-2267.5" y="2154.5" width="260" height="80" as="geometry" />
        </mxCell>
        <mxCell id="HDF9foMfLyrXzTbLnonI-23" value="" style="shape=image;verticalLabelPosition=bottom;labelBackgroundColor=default;verticalAlign=top;aspect=fixed;imageAspect=0;image=https://cdn-icons-png.flaticon.com/512/61/61227.png;" vertex="1" parent="1">
          <mxGeometry x="-2370" y="2145.75" width="87.5" height="87.5" as="geometry" />
        </mxCell>
        <mxCell id="HDF9foMfLyrXzTbLnonI-24" value="" style="rounded=0;whiteSpace=wrap;html=1;" vertex="1" parent="1">
          <mxGeometry x="-1750" y="1989.5" width="160" height="150" as="geometry" />
        </mxCell>
        <mxCell id="HDF9foMfLyrXzTbLnonI-25" value="&lt;div&gt;&lt;font style=&quot;font-size: 56px;&quot;&gt;Read&amp;nbsp;&lt;/font&gt;&lt;/div&gt;&lt;div&gt;&lt;font style=&quot;font-size: 56px;&quot;&gt;files&lt;/font&gt;&lt;/div&gt;" style="text;html=1;align=center;verticalAlign=middle;resizable=0;points=[];autosize=1;" vertex="1" parent="1">
          <mxGeometry x="-1760" y="1989.5" width="170" height="150" as="geometry" />
        </mxCell>
        <mxCell id="HDF9foMfLyrXzTbLnonI-26" value="" style="shape=note;whiteSpace=wrap;html=1;backgroundOutline=1;darkOpacity=0.05;fillColor=#f5f5f5;fontColor=#333333;strokeColor=#666666;" vertex="1" parent="1">
          <mxGeometry x="125" y="1935.5" width="240" height="230" as="geometry" />
        </mxCell>
        <mxCell id="HDF9foMfLyrXzTbLnonI-27" value="&lt;div style=&quot;font-size: 52px;&quot;&gt;&lt;font style=&quot;font-size: 52px;&quot;&gt;CID : 156&lt;/font&gt;&lt;/div&gt;" style="text;html=1;align=center;verticalAlign=middle;resizable=0;points=[];autosize=1;strokeColor=none;fillColor=none;" vertex="1" parent="1">
          <mxGeometry x="125" y="2004.5" width="240" height="80" as="geometry" />
        </mxCell>
        <mxCell id="wPL9N87I6AKQR9O6h3sn-258" value="&lt;font style=&quot;font-size: 75px;&quot;&gt;&lt;font style=&quot;font-size: 75px;&quot; color=&quot;#990000&quot;&gt;STEP 3 : IPFS Retrieve&lt;/font&gt;&lt;br&gt;&lt;/font&gt;" style="text;html=1;align=center;verticalAlign=middle;resizable=0;points=[];autosize=1;strokeColor=none;fillColor=none;" parent="1" vertex="1">
          <mxGeometry x="-1874" y="2570" width="800" height="100" as="geometry" />
        </mxCell>
        <mxCell id="HDF9foMfLyrXzTbLnonI-35" value="" style="html=1;shadow=0;dashed=0;align=center;verticalAlign=middle;shape=mxgraph.arrows2.uTurnArrow;dy=25;arrowHead=110;dx2=152.5;fillColor=#ffe6cc;strokeColor=#d79b00;" vertex="1" parent="1">
          <mxGeometry x="-710" y="2070" width="390" height="879.75" as="geometry" />
        </mxCell>
        <mxCell id="HDF9foMfLyrXzTbLnonI-36" value="" style="html=1;shadow=0;dashed=0;align=center;verticalAlign=middle;shape=mxgraph.arrows2.uTurnArrow;dy=27.5;arrowHead=110;dx2=178.75;fillColor=#ffe6cc;strokeColor=#d79b00;rotation=-180;" vertex="1" parent="1">
          <mxGeometry x="490" y="2079.75" width="470" height="900.25" as="geometry" />
        </mxCell>
        <mxCell id="HDF9foMfLyrXzTbLnonI-37" value="" style="rounded=0;whiteSpace=wrap;html=1;" vertex="1" parent="1">
          <mxGeometry x="-615" y="2124.5" width="400" height="110" as="geometry" />
        </mxCell>
        <mxCell id="HDF9foMfLyrXzTbLnonI-38" value="&lt;font style=&quot;font-size: 56px;&quot;&gt;WaitTime&lt;/font&gt;" style="text;html=1;align=center;verticalAlign=middle;resizable=0;points=[];autosize=1;" vertex="1" parent="1">
          <mxGeometry x="-482.5" y="2139.5" width="260" height="80" as="geometry" />
        </mxCell>
        <mxCell id="HDF9foMfLyrXzTbLnonI-39" value="" style="shape=image;verticalLabelPosition=bottom;labelBackgroundColor=default;verticalAlign=top;aspect=fixed;imageAspect=0;image=https://cdn-icons-png.flaticon.com/512/61/61227.png;" vertex="1" parent="1">
          <mxGeometry x="-585" y="2130.75" width="87.5" height="87.5" as="geometry" />
        </mxCell>
        <mxCell id="HDF9foMfLyrXzTbLnonI-41" value="" style="rounded=0;whiteSpace=wrap;html=1;" vertex="1" parent="1">
          <mxGeometry x="-130" y="1995.75" width="160" height="150" as="geometry" />
        </mxCell>
        <mxCell id="HDF9foMfLyrXzTbLnonI-40" value="&lt;div&gt;&lt;font style=&quot;font-size: 56px;&quot;&gt;Read&amp;nbsp;&lt;/font&gt;&lt;/div&gt;&lt;div&gt;&lt;font style=&quot;font-size: 56px;&quot;&gt;files&lt;/font&gt;&lt;/div&gt;" style="text;html=1;align=center;verticalAlign=middle;resizable=0;points=[];autosize=1;" vertex="1" parent="1">
          <mxGeometry x="-135" y="1995.75" width="170" height="150" as="geometry" />
        </mxCell>
        <mxCell id="wPL9N87I6AKQR9O6h3sn-267" value="&lt;font style=&quot;font-size: 75px;&quot;&gt;&lt;font style=&quot;font-size: 75px;&quot; color=&quot;#990000&quot;&gt;STEP 3 : IPFS Retrieve&lt;/font&gt;&lt;br&gt;&lt;/font&gt;" style="text;html=1;align=center;verticalAlign=middle;resizable=0;points=[];autosize=1;strokeColor=none;fillColor=none;" parent="1" vertex="1">
          <mxGeometry x="-330" y="2880" width="800" height="100" as="geometry" />
        </mxCell>
      </root>
    </mxGraphModel>
  </diagram>
</mxfile>
